<svg width="1873" height="378" viewBox="0 0 1873 378" fill="none" xmlns="http://www.w3.org/2000/svg">
<path d="M195.342 0C213.4 3.81216e-05 231.458 2.6044 249.517 7.81348C267.575 12.6753 284.591 19.7946 300.565 29.1709C316.54 38.5473 330.605 49.6597 342.76 62.5088L287.543 128.145C275.736 113.212 261.671 101.404 245.349 92.7217C229.027 84.04 212.879 79.6992 196.904 79.6992C183.013 79.6992 169.991 82.4778 157.836 88.0342C145.682 93.2432 135.09 100.709 126.061 110.433C117.031 119.809 110.085 131.096 105.224 144.292C100.362 157.141 97.9307 171.206 97.9307 186.486C97.9307 201.766 100.362 216.005 105.224 229.201C110.085 242.05 117.031 253.337 126.061 263.061C135.09 272.784 145.681 280.424 157.836 285.98C169.99 291.19 183.013 293.794 196.904 293.794C212.184 293.794 227.812 289.974 243.786 282.334C260.108 274.347 274.694 263.755 287.543 250.559L343.28 309.421C330.084 323.312 315.151 335.467 298.481 345.885C281.812 355.956 264.276 363.77 245.87 369.326C227.812 374.883 209.753 377.661 191.695 377.661C164.261 377.661 138.909 372.972 115.642 363.596C92.3745 353.872 72.0589 340.503 54.6953 323.486C37.6789 306.123 24.3086 285.981 14.585 263.061C4.86132 239.793 3.89186e-05 214.616 0 187.528C0 160.788 4.8613 136.131 14.585 113.559C24.3086 90.6385 38.0263 70.6698 55.7373 53.6533C73.4482 36.637 94.1111 23.4408 117.726 14.0645C141.688 4.68806 167.56 0 195.342 0ZM856.202 0C896.506 0 930.972 8.0271 959.6 24.082C988.227 40.1372 1010.07 62.3961 1025.14 90.8574C1040.59 119.319 1048.31 151.976 1048.31 188.83C1048.31 215.832 1043.6 240.827 1034.18 263.815C1025.14 286.803 1012.15 306.872 995.196 324.021C978.622 340.806 958.47 353.943 934.739 363.43C911.385 372.917 885.206 377.661 856.202 377.661C815.898 377.661 781.432 369.633 752.805 353.578C728.972 340.212 709.708 322.545 695.013 300.58C689.239 308.92 682.754 316.735 675.553 324.021C658.979 340.806 638.826 353.943 615.096 363.43C591.742 372.917 565.563 377.661 536.559 377.661C496.254 377.661 461.789 369.633 433.161 353.578C404.534 337.523 382.497 315.264 367.054 286.803C351.987 258.341 344.453 225.684 344.453 188.83C344.453 161.828 348.973 136.834 358.014 113.846C367.431 90.8577 380.426 70.9705 397 54.1855C413.95 37.0359 434.291 23.7175 458.021 14.2305C481.752 4.74338 507.931 6.74274e-06 536.559 0C576.863 0 611.329 8.0271 639.956 24.082C663.85 37.4825 683.02 55.2056 697.467 77.249C703.214 69.0023 709.605 61.3135 716.644 54.1855C733.594 37.0359 753.935 23.7175 777.665 14.2305C801.396 4.74338 827.575 6.74274e-06 856.202 0ZM1181.29 290.351H1333.6V369.326H1087.44V9.83496H1181.29V290.351ZM1470.26 369.326H1376.41V9.83496H1470.26V369.326ZM1786.33 228.253V9.83496H1873V369.326H1790.95L1627.87 152.479V369.326H1540.17V9.83496H1622.74L1786.33 228.253ZM531.358 21.8936C514.719 21.8937 499.813 28.6437 486.641 42.1445C473.815 55.2805 463.762 74.0722 456.482 98.5195C449.203 122.602 445.563 150.881 445.562 183.356C445.562 215.102 449.722 244.111 458.042 270.383C466.708 296.29 478.322 317.089 492.881 332.779C507.44 348.105 523.733 355.768 541.759 355.768C558.745 355.767 573.651 349.199 586.477 336.063C599.303 322.563 609.355 303.77 616.635 279.688C623.914 255.24 627.555 226.779 627.555 194.304C627.555 162.558 623.221 133.731 614.555 107.824C606.235 81.5524 594.796 60.754 580.236 45.4287C565.677 29.7384 549.384 21.8936 531.358 21.8936ZM851.002 21.8936C834.363 21.8937 819.457 28.6437 806.284 42.1445C793.458 55.2805 783.406 74.0722 776.126 98.5195C768.846 122.602 765.206 150.881 765.206 183.356C765.206 215.102 769.366 244.111 777.686 270.383C786.352 296.29 797.965 317.089 812.524 332.779C827.084 348.105 843.377 355.768 861.402 355.768C878.388 355.767 893.294 349.199 906.12 336.063C918.946 322.563 928.999 303.77 936.278 279.688C943.558 255.24 947.198 226.779 947.198 194.304C947.198 162.558 942.865 133.731 934.198 107.824C925.879 81.5524 914.439 60.754 899.88 45.4287C885.321 29.7384 869.028 21.8936 851.002 21.8936Z" fill="#1E1F20"/>
</svg>
