<svg width="1873" height="378" viewBox="0 0 1873 378" fill="none" xmlns="http://www.w3.org/2000/svg">
<path d="M195.342 0C213.4 3.85707e-05 231.458 2.6044 249.517 7.81348C267.575 12.6753 284.591 19.7946 300.565 29.1709C316.54 38.5473 330.605 49.6597 342.76 62.5088L287.543 128.145C275.736 113.212 261.671 101.404 245.349 92.7217C229.027 84.04 212.879 79.6992 196.904 79.6992C183.013 79.6992 169.991 82.4778 157.836 88.0342C145.682 93.2432 135.09 100.709 126.061 110.433C117.031 119.809 110.085 131.096 105.224 144.292C100.362 157.141 97.9307 171.206 97.9307 186.486C97.9307 201.766 100.362 216.005 105.224 229.201C110.085 242.05 117.031 253.337 126.061 263.061C135.09 272.784 145.682 280.424 157.836 285.98C169.99 291.19 183.013 293.794 196.904 293.794C212.184 293.794 227.812 289.974 243.786 282.334C260.108 274.347 274.694 263.755 287.543 250.559L343.28 309.421C330.084 323.312 315.151 335.467 298.481 345.885C281.812 355.956 264.276 363.77 245.87 369.326C227.812 374.883 209.753 377.661 191.695 377.661C164.261 377.661 138.909 372.972 115.642 363.596C92.3745 353.872 72.0589 340.503 54.6953 323.486C37.6789 306.123 24.3086 285.981 14.585 263.061C4.86131 239.793 3.80187e-05 214.616 0 187.528C0 160.788 4.8613 136.131 14.585 113.559C24.3086 90.6385 38.0263 70.6698 55.7373 53.6533C73.4482 36.637 94.1111 23.4408 117.726 14.0645C141.688 4.68806 167.56 0 195.342 0ZM871.225 0C910.268 0 943.656 8.02787 971.388 24.083C999.119 40.1381 1020.28 62.3962 1034.88 90.8574C1049.84 119.319 1057.32 151.976 1057.32 188.83C1057.32 215.832 1052.76 240.827 1043.64 263.815C1034.88 286.803 1022.29 306.872 1005.87 324.021C989.814 340.806 970.293 353.943 947.305 363.43C924.682 372.917 899.321 377.661 871.225 377.661C832.182 377.661 798.794 369.633 771.062 353.578C743.331 337.523 721.985 315.264 707.024 286.803C706.123 285.044 705.248 283.27 704.402 281.479C696.474 297.236 686.478 311.418 674.411 324.021C658.356 340.806 638.835 353.943 615.847 363.43C593.224 372.917 567.864 377.661 539.768 377.661C500.725 377.661 467.337 369.633 439.605 353.578C411.874 337.523 390.527 315.264 375.566 286.803C360.971 258.341 353.674 225.684 353.674 188.83C353.674 161.828 358.052 136.834 366.81 113.846C375.932 90.8577 388.52 70.9705 404.575 54.1855C420.995 37.0358 440.7 23.7176 463.688 14.2305C486.676 4.74335 512.036 0 539.768 0C578.811 4.34985e-05 612.198 8.02791 639.93 24.083C667.661 40.1381 688.824 62.3962 703.42 90.8574C704.373 92.6708 705.296 94.5012 706.188 96.3486C714.255 80.6104 724.202 66.555 736.033 54.1855C752.453 37.0358 772.158 23.7176 795.146 14.2305C818.133 4.74339 843.493 4.16298e-05 871.225 0ZM1181.29 290.351H1333.6V369.326H1087.44V9.83496H1181.29V290.351ZM1470.26 369.326H1376.41V9.83496H1470.26V369.326ZM1786.33 228.253V9.83496H1873V369.326H1790.95L1627.87 152.479V369.326H1540.17V9.83496H1622.74L1786.33 228.253ZM534.294 21.8936C516.779 21.8936 501.088 28.6436 487.223 42.1445C473.722 55.2806 463.14 74.073 455.478 98.5205C447.815 122.603 443.983 150.882 443.983 183.356C443.983 215.102 448.363 244.111 457.12 270.383C466.242 296.29 478.466 317.089 493.791 332.779C509.116 348.105 526.266 355.767 545.24 355.768C563.12 355.768 578.811 349.199 592.312 336.063C605.812 322.563 616.394 303.77 624.057 279.688C631.719 255.24 635.551 226.779 635.551 194.304C635.551 162.558 630.989 133.732 621.867 107.825C613.11 81.5531 601.069 60.7541 585.743 45.4287C570.418 29.7385 553.268 21.8936 534.294 21.8936ZM865.752 21.8936C848.237 21.8936 832.547 28.6436 818.681 42.1445C805.18 55.2806 794.598 74.073 786.936 98.5205C779.273 122.603 775.441 150.882 775.441 183.356C775.441 215.102 779.82 244.111 788.577 270.383C797.699 296.29 809.924 317.089 825.249 332.779C840.574 348.105 857.724 355.768 876.698 355.768C894.578 355.768 910.269 349.199 923.77 336.063C937.27 322.563 947.852 303.77 955.515 279.688C963.177 255.24 967.009 226.779 967.009 194.304C967.009 162.558 962.447 133.732 953.325 107.825C944.568 81.5532 932.526 60.7541 917.201 45.4287C901.876 29.7385 884.726 21.8936 865.752 21.8936Z" fill="#1E1F20"/>
</svg>
