<svg width="331" height="116" viewBox="0 0 331 116" fill="none" xmlns="http://www.w3.org/2000/svg">
<path fill-rule="evenodd" clip-rule="evenodd" d="M40.8352 17.0186C63.1304 17.0186 81.4359 35.3034 81.4359 57.8077C81.4359 80.5463 63.1304 98.8311 40.8352 98.8311C18.3055 98.831 3.53808e-05 80.5463 0 57.8077C0 35.3034 18.3054 17.0186 40.8352 17.0186ZM55.151 20.5347C46.7024 20.7692 37.3149 24.2856 30.5091 29.9116C23.7032 35.7721 18.0708 45.6177 18.0708 55.6977C18.3055 71.1694 29.8052 80.7807 41.0701 80.7807C54.9165 80.5463 63.1303 69.2942 62.8957 58.7453C62.8957 48.4309 57.2632 40.9294 44.8249 37.882C44.8249 37.882 44.8249 37.6474 44.8249 37.1786C44.8249 29.4428 50.6921 22.4101 58.202 21.0036C57.4979 20.7692 56.3244 20.5347 55.151 20.5347Z" fill="currentColor"/>
<path fill-rule="evenodd" clip-rule="evenodd" d="M141.515 44.2112C143.862 44.2112 145.896 44.6801 147.617 45.6177C149.495 46.5554 150.981 47.7277 152.076 49.1342C153.328 50.5407 154.267 52.1816 154.893 54.0569C155.362 55.9323 155.597 57.8077 155.597 59.683C155.597 61.7146 155.362 63.6681 154.893 65.5434C154.267 67.4187 153.328 69.0597 152.076 70.4662C150.981 72.0289 149.495 73.2792 147.617 74.2169C145.896 74.9983 143.862 75.3892 141.515 75.3892C139.169 75.3892 137.056 74.9983 135.179 74.2169C133.458 73.2792 131.971 72.0289 130.72 70.4662C129.625 69.0597 128.764 67.4187 128.138 65.5434C127.512 63.6681 127.2 61.7146 127.2 59.683C127.2 57.8077 127.512 55.9323 128.138 54.0569C128.764 52.1816 129.625 50.5407 130.72 49.1342C131.971 47.7277 133.458 46.5554 135.179 45.6177C137.056 44.6801 139.169 44.2112 141.515 44.2112ZM141.515 50.775C140.42 50.775 139.403 51.0096 138.464 51.4784C137.682 51.9472 137.057 52.5722 136.587 53.3535C135.961 54.1349 135.492 55.0726 135.179 56.1666C134.866 57.2605 134.71 58.4328 134.71 59.683C134.71 61.0895 134.866 62.3398 135.179 63.4338C135.492 64.5277 135.883 65.4655 136.352 66.2468C136.978 67.0282 137.682 67.6534 138.464 68.1222C139.403 68.5911 140.42 68.8253 141.515 68.8253C142.611 68.8253 143.55 68.5911 144.332 68.1222C145.114 67.6534 145.818 67.0282 146.444 66.2468C147.07 65.4655 147.539 64.5277 147.852 63.4338C148.008 62.3398 148.087 61.0895 148.087 59.683C148.087 58.4328 148.008 57.2605 147.852 56.1666C147.539 55.0727 147.07 54.1349 146.444 53.3535C145.818 52.5722 145.114 51.9472 144.332 51.4784C143.55 51.0096 142.611 50.775 141.515 50.775Z" fill="currentColor"/>
<path fill-rule="evenodd" clip-rule="evenodd" d="M186.34 74.9203H179.3L179.065 72.5761C178.283 73.3575 177.344 74.0607 176.249 74.6858C175.154 75.1546 173.824 75.3891 172.259 75.3892C170.069 75.3892 168.27 74.9983 166.861 74.2169C165.297 73.2792 163.967 72.1072 162.872 70.7007C161.777 69.2942 160.916 67.6533 160.29 65.778C159.821 63.9027 159.586 61.8709 159.586 59.683C159.586 57.8077 159.899 55.9323 160.525 54.0569C160.994 52.1816 161.855 50.5407 163.106 49.1342C164.202 47.7277 165.61 46.5554 167.331 45.6177C169.208 44.6801 171.321 44.2112 173.667 44.2112C175.232 44.2112 176.875 44.5238 178.596 45.1489V33.6624H186.34V74.9203ZM174.606 50.775C173.198 50.775 172.025 51.0093 171.086 51.4781C170.147 51.947 169.443 52.5722 168.974 53.3535C168.348 54.2912 167.878 55.3072 167.565 56.4011C167.253 57.3388 167.096 58.4328 167.096 59.683C167.096 60.777 167.174 61.949 167.331 63.1992C167.644 64.2932 168.113 65.2309 168.739 66.0123C169.208 66.9499 169.834 67.6531 170.616 68.1219C171.555 68.5908 172.572 68.8253 173.667 68.8253C174.606 68.8253 175.545 68.5908 176.484 68.1219C177.579 67.6531 178.283 67.0282 178.596 66.2468V51.4781C177.188 51.0093 175.858 50.775 174.606 50.775Z" fill="currentColor"/>
<path fill-rule="evenodd" clip-rule="evenodd" d="M204.176 44.2112C205.898 44.2112 207.462 44.4458 208.87 44.9146C210.122 45.3834 211.295 46.0866 212.391 47.0243C213.329 47.9619 214.033 49.1342 214.503 50.5407C215.128 51.9472 215.442 53.6662 215.442 55.6977V74.6858H208.401L208.166 72.5761C207.384 73.5138 206.367 74.2169 205.115 74.6858C203.707 75.1546 202.299 75.3892 200.891 75.3892C199.483 75.3892 198.231 75.2329 197.136 74.9203C195.884 74.4515 194.867 73.8263 194.085 73.0449C193.146 72.2635 192.364 71.2476 191.738 69.9973C191.269 68.9034 191.034 67.575 191.034 66.0123C191.034 64.6058 191.269 63.2775 191.738 62.0273C192.364 60.9333 193.146 59.9956 194.085 59.2142C195.18 58.4328 196.354 57.8077 197.605 57.3388C198.857 56.87 200.187 56.4791 201.595 56.1666C202.534 56.0103 203.629 55.854 204.881 55.6977C205.976 55.5415 206.915 55.4634 207.697 55.4634V54.9946C207.697 53.4318 207.306 52.2598 206.523 51.4784C205.741 50.8533 204.568 50.5407 203.003 50.5407C202.221 50.5407 201.36 50.6187 200.422 50.775C199.639 50.9313 199.014 51.1659 198.544 51.4784C197.918 51.791 197.371 52.1035 196.901 52.4161C196.276 52.7286 195.884 53.041 195.728 53.3535L193.146 47.962C193.459 47.6494 193.929 47.2588 194.554 46.79C195.337 46.4774 196.197 46.0866 197.136 45.6177C198.075 45.3052 199.17 44.9926 200.422 44.68C201.517 44.3675 202.768 44.2112 204.176 44.2112ZM207.932 60.855C206.993 60.855 206.132 60.9333 205.35 61.0896C204.411 61.0896 203.551 61.2459 202.768 61.5584C201.204 61.871 200.109 62.4178 199.483 63.1992C198.701 63.9806 198.309 64.8403 198.309 65.778C198.309 66.7156 198.701 67.4971 199.483 68.1222C200.265 68.7473 201.282 69.0596 202.534 69.0596C203.629 69.0596 204.568 68.8253 205.35 68.3565C206.289 68.0439 207.149 67.5751 207.932 66.95V60.855Z" fill="currentColor"/>
<path fill-rule="evenodd" clip-rule="evenodd" d="M253.226 44.2112C255.573 44.2112 257.607 44.6801 259.328 45.6177C261.205 46.5554 262.692 47.7277 263.787 49.1342C265.038 50.5407 265.977 52.1816 266.603 54.0569C267.229 55.9323 267.463 57.8077 267.307 59.683C267.463 61.7146 267.229 63.6681 266.603 65.5434C265.977 67.4187 265.038 69.0597 263.787 70.4662C262.692 72.0289 261.205 73.2792 259.328 74.2169C257.607 74.9983 255.573 75.3892 253.226 75.3892C250.879 75.3892 248.767 74.9983 246.889 74.2169C245.168 73.2792 243.682 72.0289 242.43 70.4662C241.335 69.0597 240.474 67.4187 239.849 65.5434C239.223 63.6681 238.91 61.7146 238.91 59.683C238.91 57.8077 239.223 55.9323 239.849 54.0569C240.474 52.1816 241.335 50.5407 242.43 49.1342C243.682 47.7277 245.168 46.5554 246.889 45.6177C248.767 44.6801 250.879 44.2112 253.226 44.2112ZM253.226 50.775C252.131 50.775 251.114 51.0096 250.175 51.4784C249.393 51.9472 248.767 52.5722 248.298 53.3535C247.672 54.1349 247.202 55.0726 246.889 56.1666C246.576 57.2605 246.42 58.4328 246.42 59.683C246.42 61.0895 246.576 62.3398 246.889 63.4338C247.202 64.5277 247.593 65.4655 248.063 66.2468C248.689 67.0282 249.393 67.6534 250.175 68.1222C251.114 68.5911 252.131 68.8253 253.226 68.8253C254.321 68.8253 255.26 68.5911 256.042 68.1222C256.824 67.6534 257.528 67.0282 258.154 66.2468C258.78 65.4655 259.249 64.5277 259.562 63.4338C259.719 62.3398 259.797 61.0895 259.797 59.683C259.797 58.4328 259.719 57.2605 259.562 56.1666C259.249 55.0727 258.78 54.1349 258.154 53.3535C257.529 52.5722 256.824 51.9472 256.042 51.4784C255.26 51.0096 254.321 50.775 253.226 50.775Z" fill="currentColor"/>
<path fill-rule="evenodd" clip-rule="evenodd" d="M317.06 44.2112C319.094 44.2112 320.894 44.5238 322.458 45.1489C324.023 45.774 325.431 46.7118 326.682 47.962C327.778 49.3685 328.638 51.0876 329.264 53.1192C330.046 55.1508 330.437 57.5732 330.438 60.3862V61.7927H310.959C311.272 64.2932 312.054 66.0906 313.305 67.1845C314.713 68.2785 316.591 68.8253 318.938 68.8253C319.877 68.8253 320.815 68.7471 321.754 68.5908C322.693 68.4345 323.475 68.2002 324.101 67.8877C324.883 67.5751 325.509 67.3408 325.978 67.1845C326.448 66.872 326.839 66.5594 327.152 66.2468L329.029 72.5761C328.873 72.7324 328.482 72.9667 327.856 73.2792C327.074 73.7481 326.213 74.1389 325.274 74.4515C324.336 74.764 323.24 74.9983 321.989 75.1546C320.737 75.3109 319.329 75.3892 317.764 75.3892C315.887 75.3891 314.088 75.0766 312.367 74.4515C310.646 73.8264 309.081 72.8886 307.673 71.6384C306.421 70.3882 305.404 68.8253 304.622 66.95C303.84 64.9183 303.449 62.5741 303.449 59.9173C303.449 57.4169 303.762 55.1508 304.387 53.1192C305.17 51.2439 306.187 49.681 307.438 48.4308C308.69 47.0243 310.176 46.0086 311.897 45.3834C313.462 44.6021 315.183 44.2112 317.06 44.2112ZM317.06 50.3062C315.809 50.3062 314.557 50.8533 313.305 51.9473C312.21 52.8849 311.506 54.3696 311.193 56.4011H322.693C322.536 55.3072 322.302 54.3695 321.989 53.5881C321.676 52.8067 321.207 52.1815 320.581 51.7127C320.111 51.2439 319.564 50.9313 318.938 50.775C318.312 50.4625 317.686 50.3062 317.06 50.3062Z" fill="currentColor"/>
<path d="M111.241 64.8403L118.751 44.9146H126.496L114.527 74.9203H107.721L95.2825 44.9146H103.497L111.241 64.8403Z" fill="currentColor"/>
<path d="M233.277 32.7247C234.998 32.7247 236.485 32.881 237.737 33.1935C238.988 33.6624 239.692 33.8966 239.849 33.8966L239.145 40.4605C238.832 40.3042 238.284 40.0699 237.502 39.7573C236.876 39.6011 235.937 39.5228 234.686 39.5228C233.591 39.5228 232.73 39.8354 232.104 40.4605C231.322 41.0856 230.931 42.1016 230.931 43.5081V44.9146H237.502V51.2439H230.931V74.9203H223.421V51.2439H219.431V44.9146H223.421V43.5081C223.421 41.4764 223.655 39.8353 224.125 38.5851C224.594 37.1786 225.298 36.0846 226.237 35.3032C227.019 34.3656 228.036 33.7404 229.288 33.4278C230.54 32.959 231.869 32.7247 233.277 32.7247Z" fill="currentColor"/>
<path d="M288.194 44.2112C289.759 44.2112 291.167 44.4458 292.418 44.9146C293.827 45.3834 295 46.1649 295.939 47.2588C296.878 48.1965 297.582 49.5248 298.051 51.2439C298.52 52.9629 298.755 54.9164 298.755 57.1043V74.9203H291.245V57.8077C291.245 55.4635 290.776 53.7443 289.837 52.6504C288.898 51.4002 287.568 50.775 285.847 50.775C284.596 50.775 283.5 51.0876 282.562 51.7127C281.466 52.3378 280.606 52.963 279.98 53.5881V74.9203H272.235V44.9146H279.276L279.511 47.2588C280.762 46.3212 282.092 45.6177 283.5 45.1489C285.065 44.5238 286.63 44.2112 288.194 44.2112Z" fill="currentColor"/>
</svg>
