<svg width="244" height="116" viewBox="0 0 244 116" fill="none" xmlns="http://www.w3.org/2000/svg">
<path d="M123.207 43.9019C131.052 43.9019 140.051 47.3278 140.439 53.5026H129.75C128.979 51.7896 127.83 50.5547 123.694 50.5547C116.928 50.5547 114.804 53.8212 114.804 58.4822C114.804 62.3464 116.833 66.2904 123.157 66.2904C128.681 66.2904 130.043 63.462 130.053 61.9083H121.024V56.4905H141.085C141.085 64.8562 136.551 71.9471 123.107 71.9471C110.3 71.9471 103.891 67.0074 103.891 58.0839C103.891 50.1165 111.687 43.9019 123.207 43.9019Z" fill="currentColor"/>
<path fill-rule="evenodd" clip-rule="evenodd" d="M70.2768 45.5351C81.9407 45.5351 85.8136 47.9254 85.8136 52.9847C85.8136 55.9725 83.9342 58.5221 79.8474 59.3587C83.5416 60.3546 85.8136 60.9522 85.8136 66.1708C85.8136 69.5569 85.699 70.6723 87.0565 70.6723V71.5489H75.3726C75.0823 70.9513 74.8755 69.2383 74.8755 66.9277C74.8755 63.5416 74.0105 62.466 68.6608 62.466H64.186V71.5489H52.7509V45.5351H70.2768ZM64.932 56.2114H70.4009C73.9508 56.2114 75.8698 55.6537 75.8698 53.861C75.8698 52.0286 73.9456 51.1124 71.2712 51.1124H64.932V56.2114Z" fill="currentColor"/>
<path d="M15.0148 61.5895H15.1144L19.7928 45.5351H30.2735L34.9519 61.5895H35.0514L39.4862 45.5351H50.0663L40.8684 71.5091H30.0895L25.0579 56.4504H24.9586L19.9768 71.5091H9.19782L0 45.5351H10.58L15.0148 61.5895Z" fill="currentColor"/>
<path d="M101.128 71.5091H89.657V45.5351H101.128V71.5091Z" fill="currentColor"/>
<path d="M154.833 64.9358H168.58V71.5091H143.86V45.5351H154.833V64.9358Z" fill="currentColor"/>
<path d="M203.72 51.5903H183.162V55.3351H200.598V60.8723H183.162V64.9358H204.401V71.5091H172.691V45.5351H203.72V51.5903Z" fill="currentColor"/>
<path d="M224.537 54.3391L231.065 45.5351H243.202L230.175 61.9081V71.5091H218.706V62.0675L205.679 45.5351H218.009L224.537 54.3391Z" fill="currentColor"/>
</svg>
