<svg width="166" height="116" viewBox="0 0 166 116" fill="none" xmlns="http://www.w3.org/2000/svg">
<path fill-rule="evenodd" clip-rule="evenodd" d="M163.809 103.11L164.162 103.604L163.95 104.027L163.669 104.167L164.021 104.31L164.162 104.661V105.156H163.809V104.875L163.598 104.38L163.175 104.311H162.892V105.156H162.469V102.969H163.245L163.809 103.11ZM162.892 104.028H163.245L163.598 103.959L163.809 103.675L163.669 103.323L163.175 103.251H162.892V104.028Z" fill="currentColor"/>
<path fill-rule="evenodd" clip-rule="evenodd" d="M163.315 102.123C163.809 102.123 164.303 102.335 164.656 102.688C165.008 103.075 165.219 103.533 165.219 104.099C165.219 104.593 165.008 105.086 164.656 105.439C164.303 105.793 163.809 106.003 163.315 106.003C162.821 106.003 162.328 105.793 161.905 105.439C161.552 105.086 161.342 104.593 161.342 104.099C161.342 103.534 161.552 103.076 161.905 102.688C162.257 102.335 162.751 102.123 163.315 102.123ZM163.315 102.404C162.822 102.404 162.47 102.546 162.117 102.898C161.764 103.251 161.623 103.604 161.623 104.099C161.623 104.521 161.764 104.874 162.117 105.225C162.469 105.579 162.822 105.719 163.315 105.719C163.738 105.719 164.09 105.579 164.443 105.225C164.795 104.944 164.937 104.593 164.937 104.099C164.937 103.604 164.795 103.251 164.443 102.898C164.091 102.546 163.738 102.404 163.315 102.404Z" fill="currentColor"/>
<path d="M58.4945 79.3009C61.1037 79.0899 63.7132 79.4437 66.2512 80.4301L67.8016 80.6058L68.7182 80.0073L68.9304 80.076C68.7889 81.31 68.7888 83.8157 68.8591 87.8362V87.8388H68.4364C68.084 85.6524 67.0968 83.8901 65.4746 82.479C63.8523 81.1391 62.0192 80.5035 59.8336 80.6085C57.0838 80.6441 54.8977 81.9154 53.3456 84.3842C51.9006 86.7123 51.232 89.6038 51.3369 93.13C51.4072 96.3405 52.2886 99.0208 53.9109 101.067C55.462 102.972 57.436 104.03 59.7632 104.101C61.738 104.242 63.5714 103.889 65.1938 103.077C66.9567 102.125 68.4378 100.713 69.6365 98.9501L69.9896 99.1624L69.4252 100.29C68.7204 101.631 67.6622 102.829 66.1817 103.746C64.2772 105.016 62.0202 105.721 59.4119 105.792C55.6742 105.934 52.6064 104.945 50.1386 102.758C47.5286 100.501 46.2602 97.3254 46.189 93.3048C46.1196 89.1782 47.3188 85.7923 49.8212 83.181C51.0555 82.0175 52.3946 81.0649 53.8752 80.4301C55.3205 79.7259 56.873 79.3721 58.4945 79.3009Z" fill="currentColor"/>
<path fill-rule="evenodd" clip-rule="evenodd" d="M107.29 79.8994C109.054 80.0063 110.605 80.6061 111.944 81.6619C113.39 82.7552 114.236 84.1664 114.447 85.9309C114.659 87.6243 114.024 89.0353 112.684 90.1624C111.52 91.2228 109.968 91.7868 108.065 91.8563C109.615 92.2098 111.097 93.4436 112.472 95.6311L114.586 99.017L116.491 102.051L117.901 103.744C118.535 104.238 119.382 104.592 120.369 104.731V105.156C118.465 105.296 116.561 105.297 114.727 105.085C113.881 105.016 113.036 104.592 112.224 103.744L110.11 100.781L108.135 97.2554L106.02 94.1513C104.962 92.9862 104.116 92.3516 103.447 92.3513C103.27 92.3513 103.093 92.4928 103.093 92.7045V102.404C103.093 102.898 103.269 103.251 103.552 103.604L104.469 104.239L105.809 104.731V105.085H95.5136V104.731L96.9945 104.167L97.9815 103.533C98.3339 103.181 98.5458 102.827 98.5458 102.333V82.5441C98.5458 82.0511 98.3337 81.6987 97.9815 81.3453L96.9945 80.6406L95.5136 80.1465V79.8994L103.975 79.7941L107.29 79.8994ZM103.201 81.3105V90.8715L104.823 91.0125L106.796 90.8002C107.926 90.4476 108.701 89.9541 109.124 89.2481C109.547 88.4718 109.689 87.4141 109.617 86.0032C109.547 84.4506 109.054 83.2524 108.137 82.3711C107.221 81.4878 106.092 81.0651 104.752 80.9956L103.201 81.3105Z" fill="currentColor"/>
<path fill-rule="evenodd" clip-rule="evenodd" d="M132.888 79.7941C137.048 80.007 140.432 81.2053 142.971 83.5333C145.509 85.8615 146.779 88.9653 146.779 92.7768C146.779 94.3268 146.497 95.7737 146.004 97.1849C145.369 98.7367 144.522 100.076 143.464 101.276C140.856 104.026 137.259 105.297 132.748 105.226L120.725 105.086V104.662L122.204 104.24L123.192 103.605L123.685 102.334V82.545C123.685 82.0528 123.544 81.6639 123.192 81.3105L122.204 80.6415L120.725 80.1474V79.7941L126.153 79.8994L132.888 79.7941ZM133.241 81.3105C131.373 80.9589 129.68 80.959 128.341 81.3462V100.995C128.41 102.053 128.693 102.758 129.186 103.183C129.398 103.428 129.962 103.605 130.737 103.815L132.606 103.886L134.51 103.674C136.978 103.11 138.741 101.7 139.869 99.5121C140.927 97.6068 141.421 95.1377 141.349 92.2104C141.28 89.3187 140.574 86.9191 139.092 84.9444C137.612 83.0394 135.708 81.7691 133.241 81.3105Z" fill="currentColor"/>
<path fill-rule="evenodd" clip-rule="evenodd" d="M10.155 79.7246C12.7287 79.6533 14.8787 80.1478 16.3952 81.3105C17.8758 82.2631 18.7218 83.6026 19.0039 85.2967C19.287 87.2002 18.8628 88.6831 17.7343 89.8814C16.8177 90.7984 15.6891 91.3625 14.3142 91.5744C16.2534 91.6457 17.9466 92.2805 19.4274 93.5153C21.0489 94.8553 21.7534 96.6205 21.6831 98.6665C21.6128 100.641 20.6958 102.193 19.0735 103.428C17.5233 104.452 15.4773 105.085 12.9038 105.156L6.31146 105.016L0 105.085V104.662L1.55134 104.24C2.60842 103.605 3.17223 102.969 3.17223 102.263V82.545C3.1722 82.0518 3.03156 81.6996 2.67918 81.3462L1.55134 80.6415L0.705236 80.3597L0.071326 80.2526V79.7941L10.155 79.7246ZM7.82714 92.4914V101.489C7.82718 103.11 8.81375 103.886 10.8585 103.886C13.6093 103.815 15.3367 102.757 16.183 100.852C16.5354 100.075 16.6776 99.2299 16.6074 98.1723C16.5362 97.0434 16.183 96.0551 15.6891 95.2805C14.5259 93.4447 12.6216 92.4918 10.0133 92.2817L7.82714 92.4914ZM9.30894 80.9938C8.74473 81.0633 8.25073 81.1361 7.82803 81.3462V90.8706C10.2957 91.0825 11.9874 90.7993 13.0455 89.8823C13.8919 89.106 14.3151 87.7669 14.3151 86.0023C14.3151 84.4506 13.7513 83.1801 12.6934 82.2631C11.7768 81.4174 10.6482 80.9948 9.30894 80.9938Z" fill="currentColor"/>
<path fill-rule="evenodd" clip-rule="evenodd" d="M83.2794 79.5489L91.6005 102.194C91.9875 103.182 92.5873 103.815 93.3275 104.168L94.9492 104.662V105.086H84.056V104.662C84.7616 104.522 85.3262 104.312 85.6786 104.028C86.1716 103.676 86.4542 103.111 86.3839 102.405L83.6325 94.1522H76.4401L74.2549 100.573L73.8314 102.688C73.7612 103.323 74.0429 103.746 74.607 104.099L76.2288 104.732V105.086H67.873V104.662L69.7756 104.099C70.6922 103.605 71.2563 102.898 71.6087 101.84L79.4715 79.5489H83.2794ZM77.074 92.3513H83.1376L80.1063 83.6742L77.074 92.3513Z" fill="currentColor"/>
<path fill-rule="evenodd" clip-rule="evenodd" d="M44.4959 102.193C44.8838 103.181 45.4827 103.814 46.2585 104.167L47.9516 104.661V105.085H36.9505V104.661L38.5722 104.027C39.1364 103.675 39.3487 103.11 39.2775 102.404L38.714 100.289L36.527 94.1513H29.4407L27.2546 100.572L26.7606 102.687C26.7608 103.322 27.0425 103.745 27.5363 104.099L29.2285 104.731V105.085H20.7666V104.731L22.7414 104.099C23.5877 103.604 24.223 102.897 24.5754 101.839L32.4016 79.548L36.2452 79.4427L44.4959 102.193ZM30.0051 92.3513H36.0339L33.0373 83.6742L30.0051 92.3513Z" fill="currentColor"/>
<path d="M158.379 80.1474C157.956 80.2524 157.463 80.4287 156.898 80.6415C155.841 81.2051 155.348 81.9114 155.348 82.6859V102.262C155.348 102.756 155.558 103.181 155.911 103.533L156.898 104.239L158.379 104.731V105.085H147.697V104.731L149.247 104.239C150.234 103.673 150.728 103.074 150.728 102.262V82.7573C150.728 81.8412 150.234 81.1357 149.247 80.6415L147.697 80.1474V79.7941H158.379V80.1474Z" fill="currentColor"/>
<path fill-rule="evenodd" clip-rule="evenodd" d="M65.3347 21.4869C66.462 22.1217 67.5199 23.1807 68.4364 24.5205C70.2705 27.2011 71.8222 29.034 73.0209 30.0587C73.8306 30.834 74.8894 31.2569 76.0879 31.3985L76.9341 31.328L77.0749 30.1997L74.9601 29.4941C74.6077 29.3187 74.3957 28.9653 74.3957 28.5424C74.396 27.9779 75.3841 27.2016 77.4289 26.2143L77.5689 24.8032C77.7807 24.0981 78.2735 24.0273 78.908 24.5214L79.755 25.2974L80.1072 25.7202L81.1646 25.3679L82.7168 25.0851C83.3501 25.0149 83.702 25.1572 83.702 25.5097L83.2081 27.2731L81.3054 29.4237C81.3054 30.4119 81.5165 31.0474 81.8689 31.2584C82.0807 31.3991 82.2912 31.4698 82.5742 31.4698C83.6312 31.3292 84.689 30.8349 85.6055 30.0596C86.9457 28.8951 88.4271 27.0613 90.19 24.5214C91.4581 22.6874 92.5157 21.6997 93.257 21.4878L94.5266 21.6992L94.6675 22.1229L94.9492 22.8275L96.1493 24.3796L98.4754 27.4801L100.449 31.254C101.367 33.2296 102.001 35.5582 102.213 38.1685C102.424 40.7077 102.213 43.1064 101.719 45.4345C100.943 49.0331 99.3919 52.1723 97.0649 54.9233L96.0075 56.1587L95.6545 56.511L95.3014 56.4049C95.1602 56.194 95.2319 55.9832 95.5849 55.7002L96.3597 54.7833C97.206 53.584 97.912 52.2786 98.405 50.8327C99.7432 47.4829 99.956 45.5777 99.0398 45.1545C98.4053 44.8723 97.6276 45.507 96.7119 47.0588L96.0075 48.1872C95.7957 48.7516 95.5132 48.9638 95.3023 48.8222C95.1611 48.7519 95.1616 48.6101 95.2327 48.3281L95.5858 47.693L96.2188 46.3524L96.9954 43.672C97.3487 41.4141 97.1366 40.0033 96.3606 39.5092C95.5856 39.0154 94.6678 39.5095 93.5396 40.9194L92.6588 42.26L91.8822 44.1653C91.811 44.6583 91.6349 44.8698 91.4587 44.7995C91.1779 44.7281 91.1079 44.5164 91.2831 44.0234L91.53 42.6132L91.2831 41.2021C91.1069 40.708 90.8251 40.3554 90.4717 40.2138C89.6968 40.0031 88.9913 40.3549 88.3578 41.3431C87.6531 42.4016 87.2995 43.7414 87.2995 45.505C87.3698 45.8575 87.5105 46.1394 87.7934 46.281C88.7803 46.6345 89.2742 47.1279 89.2743 47.7626C89.2031 48.538 88.921 49.0324 88.3578 49.3146C86.311 48.3976 84.7602 48.2572 83.7733 48.9623C82.9271 49.5981 82.0814 51.1144 81.3054 53.6888C80.5286 56.1576 79.965 58.8036 79.7541 61.6952L79.6123 63.5308C79.6833 63.8839 79.542 64.0249 79.2602 64.025C79.0494 64.025 78.9075 63.884 78.9775 63.5308L78.8376 61.6952C78.6257 58.8738 78.0612 56.193 77.2149 53.5827C76.3686 50.9732 75.522 49.3859 74.6766 48.8918C73.6176 48.258 72.1022 48.3987 70.0573 49.386C69.6347 49.0343 69.4233 48.4686 69.3521 47.7635C69.282 47.1991 69.775 46.7047 70.7626 46.2819L71.2565 45.5773C71.3268 43.8145 70.9742 42.4035 70.1982 41.3448C69.5637 40.4279 68.8594 40.0751 68.0834 40.2861C67.7319 40.4286 67.4491 40.7803 67.2382 41.2744L67.0964 42.615L67.2382 44.0252C67.449 44.5183 67.4487 44.8013 67.0964 44.8717C66.8847 44.8717 66.7432 44.661 66.6729 44.167L65.9677 42.3332L65.0511 40.9212C63.9228 39.5112 62.9357 39.0874 62.1598 39.5814C61.3847 40.0756 61.1727 41.416 61.5954 43.6738L62.3719 46.3542L62.9363 47.7644L63.3589 48.3994C63.4292 48.6113 63.4289 48.8233 63.2181 48.8936C63.0072 49.0351 62.7237 48.8228 62.5128 48.1881L61.8789 47.0597C60.9615 45.5784 60.1873 44.9438 59.5519 45.2258C58.6344 45.5784 58.7752 47.4836 60.1154 50.905C60.6796 52.2805 61.3848 53.5858 62.2311 54.7851L62.9372 55.702C63.2893 56.0543 63.4298 56.2663 63.2894 56.5128L62.8659 56.5494L62.5128 56.1962L61.4554 54.9965C59.1986 52.2801 57.6468 49.1062 56.8005 45.4372C56.3066 43.1091 56.1661 40.7103 56.3779 38.1712C56.5897 35.561 57.1545 33.2331 58.071 31.2576L60.0458 27.4827L63.4311 22.9694L63.8537 22.3343V21.7688L64.2059 21.346L64.8407 21.2746L65.3347 21.4869ZM93.8232 22.4743C93.7528 22.2636 93.54 22.2635 93.3292 22.4743L92.4484 23.3208C91.3911 24.4497 90.4034 26.2142 89.6274 28.5424L88.6395 31.3994L87.7943 32.8096C87.5114 33.1629 87.1593 33.3734 86.6656 33.4438L84.6212 33.021L82.3646 32.245C81.6599 32.1043 81.4471 32.1045 81.7994 32.3154C83.7747 33.5147 84.2679 35.8428 83.2812 39.2987L82.1524 42.7559L80.8133 45.9314C79.8256 48.4703 79.3323 51.0459 79.2611 53.7968C79.261 52.457 79.05 50.9042 78.6967 49.1764C78.2029 46.9188 77.5683 45.5075 76.8636 44.8726C76.2292 44.3786 75.4533 44.238 74.6784 44.4498C73.9024 44.6608 73.3029 45.1544 72.9496 46.0009C73.1613 44.2379 73.4082 43.1803 73.9018 42.8978H75.0296L76.9332 43.7443L76.0879 41.5571L75.241 39.0882C74.8886 37.2541 74.8879 35.7017 75.3818 34.4312C75.6639 33.7966 76.1572 33.2326 76.7914 32.88L77.9201 32.4573L78.2723 32.1745L78.1314 31.1862L77.9201 30.8339L77.8497 31.8222L77.4966 32.0327L76.9323 32.104C75.8752 32.1744 74.887 32.5269 73.9705 33.021C73.3014 33.4438 72.5952 33.5854 71.9608 33.5151C71.4673 33.4447 71.0455 33.1627 70.7626 32.8105L69.9878 31.4707L69.1417 28.7538C68.3657 26.4259 67.3089 24.5912 66.1103 23.3217L65.2633 22.4752H64.6999V22.758L64.4172 23.2521L63.1485 24.8737L61.1032 27.9778C59.6225 30.8347 58.9179 33.6568 58.8476 36.4078C58.7764 39.5825 59.1998 41.9815 60.1876 43.7451L60.2571 43.6747C59.6227 41.5585 59.4106 39.2303 59.6223 36.6201C59.7629 34.7861 60.1864 32.8815 60.9615 30.8356L63.0772 26.4971C62.7248 28.1904 62.7245 30.2008 62.9363 32.6695C63.2887 35.7036 63.9942 38.173 65.1938 40.0774H65.2633C64.4873 37.8196 63.9935 35.2088 63.8529 32.3163C63.7826 29.8476 63.9241 27.7666 64.3468 26.0021L64.9112 24.3082L65.4755 23.8141L66.1799 24.5196L66.8851 25.9307C67.5195 27.412 67.8725 29.0334 68.0834 30.6216L68.9304 34.7853C69.2828 36.0545 69.8473 36.8311 70.4817 37.1133C71.1159 37.3951 71.7515 37.2538 72.5261 36.761C73.2316 36.267 73.6902 35.6318 73.9713 34.8567C73.7605 35.9141 73.6193 36.7608 73.6896 37.537C73.7599 38.3132 74.0418 39.2303 74.4653 40.2174L75.7349 42.5472L74.4653 41.9113L73.8305 41.7703C73.3019 41.7 72.8788 42.0528 72.667 42.8291C72.3146 43.7461 72.173 44.9458 72.173 46.4273C72.1028 46.7091 71.9619 46.9206 71.7504 46.991C70.6221 47.202 70.1291 47.6264 70.34 48.2612L72.9487 47.6261C72.8785 47.0618 73.161 46.4975 73.6183 45.9331C74.1825 45.2984 74.8171 45.1568 75.5931 45.439C76.5798 45.8622 77.4266 47.2028 78.061 49.5305C78.6252 51.4001 78.9778 53.5874 79.1193 56.057L79.2602 59.7962L79.4715 56.057C79.5427 53.5873 79.8951 51.4001 80.4593 49.5305C81.0938 47.2024 81.9403 45.8619 82.9281 45.439C83.703 45.157 84.3372 45.2985 84.9716 45.9331C85.4644 46.4975 85.6767 47.0609 85.6064 47.6261L88.2152 48.1907C88.4971 47.6967 88.0735 47.2732 86.8742 46.991C86.5927 46.9197 86.4518 46.7091 86.4516 46.4273L85.9577 42.8291C85.6757 42.0531 85.2531 41.7003 84.7594 41.7703L83.9828 42.0531L83.0663 42.4759L83.9133 40.782C84.5467 39.4423 84.9002 38.0311 84.9003 36.6914L84.6177 34.7871C85.0403 35.7751 85.4636 36.4094 85.8168 36.7628C86.1689 37.1148 86.5215 37.2562 86.9447 37.3265C87.3672 37.3976 87.7915 37.2562 88.1438 36.9037C88.7078 36.4096 89.2012 35.564 89.6247 34.3643L90.4708 30.6243C90.8241 28.7557 91.1761 27.1326 91.6343 25.9334L92.4457 24.5223L93.0448 23.8176L93.6083 24.3109L94.2431 26.0047C94.5955 27.7684 94.736 29.8494 94.6657 32.319C94.5954 35.2115 94.1015 37.8222 93.2552 40.08H93.3257C94.5244 38.1757 95.2298 35.7055 95.5831 32.6722C95.7931 30.2036 95.7937 28.1922 95.4423 26.4998L97.5571 30.8383C98.3321 32.8842 98.7558 34.7888 98.9667 36.6228C99.1784 39.2329 98.8967 41.5612 98.2632 43.6774L98.3328 43.7478C99.3205 42.0545 99.8144 39.5851 99.7432 36.4105C99.6738 33.8002 98.8961 31.0487 97.4867 28.191L95.5154 25.0851L94.1049 23.2512L93.8936 22.7571L93.8232 22.4743ZM78.2741 27.9073C78.2034 28.0477 78.3451 28.118 78.5567 28.1892L79.4028 28.2596C79.7549 28.2596 79.896 28.1888 79.9663 28.0482L79.755 27.4845L78.6976 27.2722L78.2741 27.9073ZM81.235 26.8485L80.9533 27.0608L81.0941 27.7664L81.5176 27.2722L81.6585 26.7781L81.235 26.8485Z" fill="currentColor"/>
<path fill-rule="evenodd" clip-rule="evenodd" d="M79.2602 9.84668C83.4223 9.84672 87.3699 10.6231 91.1065 12.2461C94.6671 13.797 97.9118 15.9841 100.732 18.7361C103.553 21.5584 105.739 24.8038 107.22 28.4006C108.84 32.1745 109.617 36.1257 109.617 40.2165C109.617 44.3797 108.841 48.3305 107.22 52.0342C105.738 55.7031 103.553 58.9824 100.732 61.6987C97.9118 64.5202 94.6671 66.7082 91.1065 68.2601C87.3689 69.8831 83.4214 70.6594 79.2602 70.6595C75.0988 70.6595 71.1854 69.8831 67.4477 68.2601C63.8515 66.7073 60.6077 64.5202 57.7866 61.6987C54.9657 58.9825 52.8148 55.703 51.229 52.0342C49.7126 48.3305 48.9368 44.3797 48.9368 40.2165C48.9368 36.1256 49.7127 32.1746 51.229 28.4006C52.8157 24.8029 54.9665 21.5574 57.7866 18.7352C60.6076 15.9841 63.8515 13.797 67.4477 12.2452C71.1854 10.623 75.0998 9.84668 79.2602 9.84668ZM79.2602 14.0086C75.664 14.0086 72.315 14.715 69.0704 16.1262C65.8978 17.467 63.1476 19.2998 60.7493 21.6992C58.2815 24.168 56.4485 26.9204 55.1083 30.0596C53.8036 33.304 53.0987 36.6908 53.0987 40.2174C53.0987 43.8161 53.8037 47.2022 55.1083 50.4474C56.4485 53.5865 58.2817 56.3373 60.7493 58.807C63.1467 61.2055 65.8978 63.0401 69.0704 64.38C72.3141 65.7911 75.664 66.4966 79.2602 66.4966C82.8563 66.4966 86.2419 65.7911 89.4857 64.38C92.659 63.0401 95.3728 61.2054 97.7702 58.807C100.238 56.3372 102.073 53.5866 103.413 50.4474C104.752 47.2022 105.456 43.8161 105.456 40.2174C105.456 36.69 104.752 33.3039 103.413 30.0587C102.073 26.9185 100.238 24.1672 97.7702 21.6983C95.3729 19.3 92.6579 17.466 89.4857 16.1253C86.2419 14.7141 82.8563 14.0086 79.2602 14.0086Z" fill="currentColor"/>
</svg>
