<svg width="205" height="116" viewBox="0 0 205 116" fill="none" xmlns="http://www.w3.org/2000/svg">
<path d="M133.22 24.4561C118.698 24.4561 105.72 32.0599 105.72 46.1054C105.72 62.2148 128.736 63.3273 128.736 71.4213C128.736 74.8293 124.871 77.8795 118.266 77.8795C108.895 77.8795 101.891 73.6174 101.891 73.6174L98.8936 87.7933C98.8936 87.7933 106.962 91.3936 117.674 91.3936C133.551 91.3936 146.046 83.4175 146.046 69.13C146.046 52.1066 122.934 51.0272 122.934 43.5164C122.934 40.8466 126.107 37.9226 132.691 37.9226C140.121 37.9226 146.181 41.0224 146.181 41.0224L149.115 27.3326C149.115 27.3326 142.519 24.4561 133.218 24.4561H133.22ZM0.352146 25.49L0 27.5559C0 27.5559 6.10932 28.685 11.6126 30.9391C18.6985 33.522 19.2022 35.0274 20.3958 39.6969L33.3986 90.3265H50.8298L77.683 25.49H60.2927L43.0376 69.5725L35.9967 32.2047C35.3518 27.9281 32.0801 25.488 28.0775 25.488H0.354193L0.352146 25.49ZM84.6768 25.49L71.0352 90.3265H87.6188L101.211 25.49H84.6768ZM177.168 25.49C173.17 25.49 171.051 27.6531 169.497 31.4313L145.201 90.3265H162.591L165.955 80.5099H187.141L189.186 90.3265H204.531L191.146 25.49H177.168ZM179.431 43.0076L184.586 67.3371H170.776L179.433 43.0076H179.431Z" fill="currentColor"/>
</svg>
