<svg width="200" height="100" viewBox="0 0 200 100" fill="none" xmlns="http://www.w3.org/2000/svg">
<path d="M136.347 0C136.347 0.284897 136.632 2.42178 137.201 6.41016C137.771 10.3988 138.91 15.2424 140.619 20.9404C142.613 26.6384 145.888 32.479 150.444 38.4619C151.264 39.4868 152.139 40.4836 153.069 41.4531H0V58.5469H153.486C152.4 59.6504 151.385 60.7894 150.444 61.9658C145.888 67.6638 142.613 73.5045 140.619 79.4873C138.91 85.1853 137.771 90.029 137.201 94.0176C136.635 97.9821 136.35 99.9762 136.347 100H151.299C151.299 99.4298 151.584 97.1508 152.153 93.1631C153.008 88.8896 154.859 84.0459 157.707 78.6328C160.84 73.2198 165.681 68.5188 172.231 64.5303C178.782 60.5417 188.038 58.5469 200 58.5469V41.4531C188.038 41.4531 178.782 39.4593 172.231 35.4707C165.681 31.4822 160.84 26.7811 157.707 21.3682C154.859 15.9551 153.008 11.1114 152.153 6.83789C151.584 2.56439 151.299 0.284905 151.299 0H136.347Z" fill="#121314"/>
</svg>
