<svg width="512" height="512" viewBox="0 0 512 512" fill="none" xmlns="http://www.w3.org/2000/svg">
<style>
  .adaptive-path {
    fill: #171717;
  }
  @media (prefers-color-scheme: dark) {
    .adaptive-path {
      fill: #FFFFFF;
    }
  }
</style>
<g clip-path="url(#clip0_282_2)">
<path class="adaptive-path" d="M373.058 64.0066C416.057 107.005 437.387 163.464 437.057 219.819C376.207 182.208 295.349 189.79 242.569 242.57C189.79 295.349 182.209 376.206 219.819 437.055C163.464 437.385 107.005 416.056 64.0069 373.058C-21.3352 287.716 -21.3358 149.349 64.0061 64.0066C149.348 -21.3355 287.716 -21.3355 373.058 64.0066ZM465.773 242.57C527.409 304.206 527.409 404.137 465.773 465.773C404.137 527.409 304.205 527.409 242.569 465.773C233.712 456.916 226.13 447.267 219.819 437.055C275.316 436.73 330.714 415.401 373.058 373.058C415.401 330.714 436.732 275.317 437.057 219.819C447.268 226.131 456.916 233.713 465.773 242.57Z" />
</g>
<defs>
<clipPath id="clip0_282_2">
<rect width="512" height="512" fill="white"/>
</clipPath>
</defs>
</svg>
