<svg width="115" height="116" viewBox="0 0 115 116" fill="none" xmlns="http://www.w3.org/2000/svg">
<path d="M66.2482 56.5211C68.6399 52.6873 70.7768 49.2853 76.014 46.5172C75.4604 46.1823 74.6715 45.6674 74.2563 45.3906C72.219 46.282 70.2011 48.0591 68.4821 49.8583C64.5293 53.9717 64.8836 56.3439 60.7121 57.9438C59.6658 58.3397 58.3814 58.7743 56.7399 59.1507C55.7711 56.164 53.3407 53.1994 50.7692 53.1994C48.9893 53.1994 46.9326 54.1294 44.5604 55.1758C41.773 56.402 39.2236 57.8054 38.4125 58.3397L39.5004 59.804C40.3308 59.3473 42.7224 58.1625 45.114 57.1328C47.1901 56.2442 49.0668 55.5135 50.3346 55.5135C52.3691 55.5135 53.695 57.8248 54.4258 59.685C51.7574 60.3161 47.3672 60.4766 46.0441 60.4766C45.4324 60.4766 45.2137 60.5735 44.995 60.7507C44.7985 60.9306 44.6407 61.2461 44.541 61.6807L44.3833 62.3534H45.806C53.1996 62.3534 60.1779 61.188 64.6677 58.4587C65.2988 58.6359 65.8524 58.7549 66.5638 58.7549C69.1353 58.7549 71.7844 57.3515 73.4452 56.0671C74.0376 55.6104 74.176 55.1951 74.176 54.7412C74.176 54.5253 74.1566 54.326 74.1373 54.1294L74.057 53.3571C71.6847 55.2367 69.7083 56.6401 67.2558 56.6401C66.8212 56.6401 66.5057 56.6013 66.2482 56.5211ZM81.1349 49.0888C78.1703 55.3363 73.6611 59.8815 69.0357 62.5112C66.8406 63.7568 64.8642 64.5678 60.5931 64.5678H51.3616C48.0593 64.5678 45.986 65.0024 44.3639 65.4176C42.6228 65.8716 41.5155 66.3256 39.7578 66.3256C37.1475 66.3256 34.7365 65.0412 33.5684 63.8149L35.7441 62.0959L34.6563 60.6538C34.0251 61.1077 26.2939 66.821 24.6718 68.1054L24.5749 68.0473C24.6137 67.6515 24.6137 67.2944 24.6137 66.9401C24.6137 62.5914 22.5958 61.5423 19.5343 60.3161L17.4582 61.5423C21.6685 62.9457 22.7176 64.0723 22.7176 67.2169C22.7176 69.7081 21.8262 70.6963 20.5419 71.4465C19.216 72.2188 17.5745 72.5731 16.1323 72.5731C15.5206 72.5731 15.2438 72.6921 15.0251 72.9108C14.787 73.1461 14.6708 73.5032 14.6708 73.9959V74.6879H15.1635C17.8125 74.6879 20.2651 74.2755 22.9528 72.1579L31.711 65.318C32.9567 66.7408 36.1012 68.7199 39.8159 68.7199C41.9114 68.7199 43.2566 68.2051 45.1943 67.7096C46.6974 67.3331 48.1589 66.9982 51.3616 66.9982H60.6346C65.3791 66.9982 67.671 66.01 70.2011 64.5872C75.6984 61.5036 80.3848 56.283 83.0338 50.2929C82.3418 49.8583 81.6886 49.4625 81.1349 49.0888ZM44.4248 42.0302C46.9133 40.2697 49.4848 40.0732 51.5609 40.0732C52.8065 40.0732 54.268 40.2503 55.8099 40.4496C57.0555 40.6074 58.1821 40.7264 59.5274 40.7264C62.2345 40.7264 64.9639 39.7382 66.1486 39.2234C66.4863 39.6386 67.0593 40.1922 67.5133 40.588C66.9403 40.9423 63.303 42.9187 59.5855 42.9187C57.944 42.9187 56.3828 42.7222 55.0403 42.5451C53.8528 42.3873 52.5684 42.2489 51.3228 42.2489C49.9581 42.2489 47.2095 42.6419 45.5099 43.453L44.4248 42.0302ZM15.9745 41.6731C17.043 41.6731 17.9122 41.3188 18.7426 40.9811C19.5343 40.6655 20.3232 40.35 21.3917 40.35C23.9217 40.35 27.0441 41.5762 29.7928 42.7416C29.9505 42.8025 30.1305 42.8412 30.3076 42.8412C30.7422 42.8412 31.0799 42.6419 31.2958 42.2267L31.6501 41.5762C28.6274 39.8157 23.8026 37.939 21.292 37.939C20.146 37.939 19.3156 38.2352 18.5239 38.5507C17.6354 38.9078 16.8631 39.2815 16.052 39.2815C14.0563 39.2815 8.9381 37.3051 8.9381 35.3868C8.9381 33.1336 17.0818 32.2644 17.9731 32.2644L18.7814 30.4264C12.8715 30.4264 5.83233 32.5025 5.83233 35.2484C5.83233 36.0401 6.28906 36.4359 6.28906 37.1667C6.28906 38.1549 5.83233 38.8275 5.83233 39.9348C5.83233 40.6655 6.26692 41.5956 6.78178 42.4067C7.33539 43.2565 7.98865 43.8101 7.98865 44.5215C7.98865 45.0557 7.63157 45.6868 7.63157 46.9324C7.63157 49.6009 9.15401 51.223 12.1186 54.4062L12.711 55.0374C10.2612 55.9868 5.69392 57.9632 4.62822 58.4199C0.930074 59.9618 0 61.8385 0 64.8031C0 65.9519 3.42354e-06 67.2556 0.0802775 68.421H0.791672C2.27536 68.421 2.45251 67.5324 2.45251 66.6826C2.45251 66.1096 2.43313 65.4564 2.43313 64.745C2.45251 63.1035 2.51064 61.642 5.15969 60.4545C6.22816 59.9811 11.4681 57.847 15.3628 56.1861C16.5088 55.6906 17.5745 55.2754 18.762 55.2754C20.0851 55.2754 21.6076 55.8484 23.5065 56.975C25.1064 57.9245 26.7894 59.2088 28.1125 60.6925L29.7928 59.4081C28.3506 57.7058 26.3548 56.1861 24.3563 54.9986C22.3605 53.8111 20.5806 53.1219 19.0775 53.1219C18.4271 53.1219 17.8928 53.2381 17.4361 53.3571C16.9046 53.4955 16.4091 53.6533 15.778 53.6533C15.0445 53.6533 14.4327 53.4762 13.5414 52.4492C13.2065 52.0728 11.0723 49.6396 10.6183 48.931C10.3996 48.5933 10.0038 47.9207 10.0038 47.129C10.0038 46.794 10.0619 46.3982 10.2612 46.0439C12.0992 47.4667 14.3718 48.3359 17.1399 48.6736L16.7662 46.794C12.7913 45.7477 8.56165 42.2489 8.56165 39.9929C8.56165 39.5196 8.68067 39.1846 8.85783 38.7694C10.3996 40.1922 14.0175 41.6731 15.9745 41.6731ZM51.4197 32.6409H61.5231L60.773 30.8195H52.3691L51.4197 32.6409ZM103.019 19.7112C105.392 18.7009 109.643 17.0013 112.093 16.1128V13.7018C107.171 15.5176 98.5323 19.0967 92.6418 22.2994C92.7996 22.4987 93.8265 23.9409 93.9456 24.118C96.4368 23.0911 98.6707 22.4184 100.686 22.4184C103.512 22.4184 105.826 22.4184 109.701 21.5105V19.6919C107.526 20.0849 105.214 20.561 103.711 20.561C102.823 20.561 102.565 20.442 102.565 20.1458C102.565 19.9659 102.684 19.8496 103.019 19.7112ZM97.7406 12.5336C96.1988 12.5336 95.7642 11.6838 95.7642 10.477C95.7642 7.98569 97.3254 4.40934 98.3136 2.37204H95.922C94.6763 4.78303 89.7741 12.5143 87.125 15.7169L88.6475 17.3584C90.0703 15.775 91.6315 13.0872 93.3338 10.4382H93.6494C93.6494 10.5766 93.63 10.7344 93.63 10.8728C93.63 13.1066 94.776 14.7675 97.6022 14.7675C99.3433 14.7675 102.07 13.8983 104.641 13.0291C106.776 12.2956 108.733 11.5454 109.701 11.2686V8.89639C108.594 9.23132 106.341 10.1033 104.008 10.9115C101.558 11.7641 99.144 12.5336 97.7406 12.5336ZM45.4324 52.2112L44.9562 50.3925C49.0281 48.1975 52.7456 46.437 58.6776 45.8667C58.7938 48.1393 58.6361 51.0043 60.3163 51.0043C61.8609 51.0043 65.2213 47.0321 69.0938 42.0496C69.4509 42.3873 70.0239 42.7416 70.5388 43.1374L69.5506 44.4218C65.7749 49.2853 62.5501 53.4374 59.9011 53.4374C57.4319 53.4374 56.5019 50.5309 56.4631 48.3552C52.6875 48.7317 49.1277 49.9967 45.4324 52.2112ZM42.7418 51.3226C40.1343 52.7842 37.4243 53.753 35.0327 53.753C32.3643 53.753 29.9921 52.607 28.0129 49.623C27.1825 48.3552 26.532 46.7747 25.7403 45.3713C24.7908 43.7104 23.7639 42.8219 21.9646 42.8219C20.3232 42.8219 18.7232 43.4945 17.0236 44.2253L17.1011 44.599C17.2396 45.2135 17.4776 45.6481 18.0506 45.6481C18.308 45.6481 18.5655 45.529 18.7039 45.4903C19.6533 45.1941 20.3453 44.9367 21.3114 44.9367C22.7951 44.9367 23.5065 45.8058 24.5168 47.94L24.8905 48.7317C23.8635 49.0888 21.4498 49.2659 19.6533 49.2659H18.8007L18.9391 50.1157C19 50.47 19.1384 50.769 19.4346 50.9074C19.7889 51.0846 20.3038 51.1039 21.1951 51.1039C23.4483 51.1039 25.087 50.8271 26.0365 50.5891C28.4696 54.2069 31.8107 55.591 35.0327 55.591C37.7814 55.591 40.5689 54.5834 43.2373 53.1219L42.7418 51.3226ZM35.387 50.5697C32.7186 50.5697 31.5339 49.3047 31.5339 47.7047C31.5339 44.8979 36.4555 42.1492 40.8844 40.4496L42.0304 41.9305C39.3038 43.0184 33.8065 45.3519 33.8065 47.367C33.8065 48.0784 34.2217 48.5933 35.8825 48.5933C38.7696 48.5933 41.8726 47.1899 44.7403 45.7865C44.9562 45.6868 45.2137 45.5899 45.4517 45.5899C45.8254 45.5899 46.0635 45.7062 46.3403 46.102L46.8164 46.7553C43.4753 48.5933 39.3038 50.5697 35.387 50.5697ZM96.495 102.169C96.7524 99.7362 98.6125 97.9176 101.439 97.9176C104.207 97.9176 106.125 99.7362 106.38 102.169H96.495ZM101.419 93.5108C94.5573 93.5108 90.7042 98.867 90.7042 104.522C90.7042 110.551 94.8341 115.849 101.458 115.849C104.76 115.849 108.002 114.603 109.859 112.411C110.67 111.462 111.324 110.136 111.324 109.325C111.324 109.048 111.263 108.81 111.105 108.633C110.947 108.436 110.709 108.317 110.294 108.317H107.111C106.479 108.317 106.045 108.555 105.729 109.029C104.799 110.393 103.454 111.105 101.477 111.105C98.5129 111.105 96.5946 108.851 96.4562 106.38H110.255C110.867 106.38 111.304 106.241 111.6 105.945C111.935 105.629 112.093 105.173 112.093 104.323C112.093 101.735 111.282 99.0469 109.582 96.9903C107.844 94.9142 105.156 93.5108 101.419 93.5108ZM110.136 90.4853C110.551 90.4853 110.867 90.3663 111.105 90.1697C111.362 89.9317 111.481 89.6161 111.481 89.14V87.302C111.481 86.5906 111.343 86.2335 111.105 85.9789C110.889 85.7408 110.532 85.6024 110.136 85.6024C109.82 85.6024 109.505 85.6412 108.971 85.7021L93.1954 87.2632C92.7387 87.302 92.5228 87.4404 92.365 87.6176C92.1851 87.8169 92.1076 88.0743 92.1076 88.4286V89.4583C92.1076 89.8514 92.1851 90.0313 92.3235 90.1891C92.5034 90.3856 92.7608 90.4853 93.1151 90.4853H110.136ZM43.1764 25.6211C43.1764 25.4245 43.1985 25.1865 43.276 24.9484C43.4338 24.4363 43.7715 23.9408 44.6019 23.9408C44.9756 23.9408 45.3908 24.0405 45.7285 24.2758C46.0247 24.4751 46.1437 24.7325 46.1437 24.9872C46.1437 25.8397 44.7182 26.828 44.0068 26.828C43.4947 26.828 43.1764 26.3325 43.1764 25.6211ZM38.5316 13.425C38.5316 12.5724 39.0464 11.6451 40.0346 11.6451C40.4692 11.6451 40.9841 11.8222 41.3578 12.1793C41.5764 12.3759 41.6761 12.5945 41.6761 12.8104C41.6761 13.2866 41.2194 13.7405 40.6851 14.0561C40.2727 14.2941 39.8353 14.4519 39.4616 14.4519C38.8471 14.4519 38.5316 14.0755 38.5316 13.425ZM58.5973 7.65075C58.5973 6.95873 58.9544 5.7131 60.2388 5.7131C60.6734 5.7131 61.0886 5.81276 61.4235 5.97054C61.8996 6.18645 62.2152 6.50477 62.2152 6.83971C62.2152 7.19679 61.8609 7.5511 61.3266 7.98568C60.773 8.44242 60.0616 8.85763 59.4858 8.85763C58.7938 8.85763 58.5973 8.20437 58.5973 7.65075ZM7.889 22.9914C7.63157 23.0911 7.51255 23.1492 7.37415 23.1492C7.15824 23.1492 7.05858 22.972 7.05858 22.8336C7.05858 22.6952 7.11671 22.615 7.25512 22.4987C9.68825 20.5998 11.8224 19.8496 14.7677 19.3542L15.1247 20.5389L7.889 22.9914ZM21.292 13.818L20.2263 13.1675C20.9155 11.5261 21.7681 10.023 22.7757 8.89639C23.4871 8.08534 24.1597 7.43484 24.9099 6.78158C25.087 6.64318 25.1867 6.52414 25.3666 6.52414C25.5631 6.52414 25.7015 6.68193 25.7015 6.83971C25.7015 6.91998 25.66 7.01686 25.5825 7.13589C24.3784 9.01541 22.0255 12.7329 21.292 13.818ZM7.27726 7.19679C7.09733 7.03901 7.05858 6.93936 7.05858 6.82033C7.05858 6.68193 7.15824 6.52414 7.37415 6.52414C7.45442 6.52414 7.53192 6.54353 7.63157 6.58228C9.09588 7.17742 10.3415 7.86943 11.4487 8.71923C12.376 9.43063 13.2867 10.2998 14.1753 11.3489L13.3449 12.2956C12.3179 11.4458 8.99623 8.65834 7.27726 7.19679ZM21.7681 25.0481C22.0643 24.5526 22.9528 23.3485 23.3099 22.972C21.7875 19.8884 19.2962 16.9432 18.2084 15.775L17.3004 16.6664C18.3468 18.1888 20.1073 21.134 21.7681 25.0481ZM32.3837 102.169C32.6411 99.7362 34.4985 97.9176 37.3247 97.9176C40.0927 97.9176 42.011 99.7362 42.2684 102.169H32.3837ZM85.3867 34.0028C85.2455 33.8256 85.1293 33.7454 84.9687 33.7454C84.7334 33.7454 84.6144 33.9059 84.6144 34.0831C84.6144 34.3599 84.8109 34.6948 85.3064 35.5252C86.8095 38.0774 88.6669 40.6462 90.9588 43.0572C93.4307 45.6868 96.3372 48.1393 99.4402 50.3344L100.409 51.0043C100.547 51.1039 100.647 51.1621 100.766 51.1621C100.963 51.1621 101.101 50.9655 101.101 50.8078C101.101 50.7081 101.062 50.6112 100.943 50.5116C98.0589 47.8819 94.9531 44.6792 92.0467 41.5956C89.7741 39.1625 87.4406 36.5937 85.3867 34.0028ZM34.6563 32.7987C33.5296 34.3211 31.9878 36.3169 30.8003 38.4317C31.1768 38.6089 32.4224 39.2815 32.857 39.5196C34.2217 37.4629 36.1206 34.9329 37.3662 33.0146C38.4928 31.2762 38.9468 30.5233 39.027 28.1898C39.0464 27.7968 39.0464 27.4203 39.0852 27.0466C39.1848 25.8397 39.5004 24.6135 40.6464 23.4869C41.4962 22.6371 42.7224 22.2025 43.9487 22.2025C45.1362 22.2025 45.8254 22.5374 46.8551 22.5374C47.5859 22.5374 48.1202 22.3603 48.5935 22.1804L48.9699 22.042L48.0593 24.2177L50.1962 25.0868C48.8315 25.9366 45.8476 29.596 45.8476 33.9253C45.8476 35.4865 46.0829 36.9286 46.4206 38.2158C46.4593 38.3542 46.5368 38.4926 46.7555 38.4926C46.9548 38.4926 47.0932 38.3736 47.1126 38.1549L47.1319 37.7009C47.1901 36.375 47.2897 34.2796 47.824 32.4028C48.7125 29.2389 51.1041 26.2743 53.4957 24.8515L50.0966 23.3679L51.5609 19.7887L49.9581 20.1264C48.9893 20.323 48.2779 20.5001 47.4281 20.5001C46.8745 20.5001 46.2406 20.4226 45.4905 20.2455C44.9175 20.1043 44.3057 19.988 43.4338 19.988C41.8726 19.988 40.1924 20.5804 39.0464 21.6876C36.951 23.6834 36.832 25.8397 36.6936 27.7553C36.5136 30.3074 36.0403 30.9385 34.6563 32.7987ZM30.1083 19.3348C29.181 20.6579 28.5084 21.3112 26.3936 23.8025C23.6061 27.1048 22.1418 29.7732 19.7114 35.7052C20.1073 35.6636 20.6803 35.6249 21.3114 35.6249C21.6297 35.6249 21.8871 35.6249 22.3023 35.6443L22.5958 35.0131C23.9604 32.0873 25.7984 28.1317 28.37 25.0868L29.2585 24.0405C31.9103 20.9347 33.549 19.0967 34.5787 14.8671C34.9331 13.364 35.2292 12.0188 36.2396 11.0499C37.1475 10.1808 38.2935 9.80709 39.4616 9.80709C40.4498 9.80709 41.1806 10.0424 42.2491 10.4991C43.2179 10.9115 43.5722 10.9918 44.6019 10.9918C44.9562 10.9918 45.2137 10.9724 45.4517 10.9531L44.0677 12.8104L45.9444 14.1336C43.5916 14.8284 42.346 17.1009 41.9335 18.15C41.8532 18.366 41.8145 18.5044 41.8145 18.6428C41.8145 18.8005 41.892 18.9583 42.13 18.9583C42.3875 18.9583 42.584 18.7618 42.9217 18.366C44.0677 16.9819 44.9756 16.0325 49.208 14.7093L46.2213 12.4561L48.4745 9.15382H46.3597C45.0171 9.15382 44.1258 9.13443 42.9605 8.6002C41.3771 7.86943 40.5689 7.5511 39.1627 7.5511C37.4437 7.5511 35.8825 8.16562 34.5981 9.35035C33.1144 10.715 32.6605 12.5336 32.1262 14.5322C31.711 16.074 31.2183 17.7736 30.1083 19.3348ZM82.9342 113.693C82.9342 114.208 83.092 114.584 83.33 114.88C83.6262 115.237 84.0414 115.456 84.6532 115.456H87.006C87.6178 115.456 88.033 115.237 88.3319 114.88C88.5672 114.584 88.725 114.208 88.725 113.693V87.8169C88.725 87.302 88.5672 86.9283 88.3319 86.6294C88.033 86.275 87.6178 86.0564 87.006 86.0564H84.6532C84.0414 86.0564 83.6262 86.275 83.33 86.6294C83.092 86.9283 82.9342 87.302 82.9342 87.8169V113.693ZM70.8349 94.2609H69.7277C69.3125 94.2609 68.9969 94.38 68.7589 94.5765C68.5015 94.8145 68.3852 95.1329 68.3852 95.6062V96.9709C68.3852 97.4442 68.5015 97.7598 68.7589 97.9978C68.9969 98.1944 69.3125 98.3134 69.7277 98.3134H70.8349V108.179C70.8349 110.709 71.527 112.292 72.8113 113.557C73.9988 114.723 75.5407 115.456 78.2285 115.456H79.9087C80.3239 115.456 80.6395 115.337 80.8775 115.138C81.1349 114.9 81.2927 114.584 81.2927 114.111V112.389C81.2927 111.916 81.1349 111.6 80.8775 111.362C80.6395 111.163 80.3239 111.047 79.9087 111.047H79.6734C78.6049 111.047 77.8714 110.77 77.3787 110.294C76.7863 109.743 76.4873 108.89 76.4873 107.783V98.3134H80.0886C80.501 98.3134 80.8194 98.1944 81.0547 97.9978C81.3121 97.7598 81.4311 97.4442 81.4311 96.9709V95.6062C81.4311 95.1329 81.3121 94.8145 81.0547 94.5765C80.8194 94.38 80.501 94.2609 80.0886 94.2609H76.5095V87.8169C76.5095 87.302 76.3517 86.9283 76.1137 86.6294C75.8175 86.275 75.4023 86.0564 74.7878 86.0564H72.5539C71.9422 86.0564 71.527 86.275 71.2308 86.6294C70.9927 86.9283 70.8349 87.302 70.8349 87.8169V94.2609ZM24.3563 3.83634C24.7715 2.92565 25.6822 2.29453 26.7673 2.29453C28.2509 2.29453 29.4384 3.44052 29.4384 4.96296C29.4384 5.85151 29.0232 6.6238 28.37 7.09714C28.5084 7.612 28.608 8.06597 28.608 8.50056C28.608 10.1614 27.6198 11.3267 25.7984 11.9413C25.5631 12.9488 25.1286 13.8595 24.4172 14.5322C23.2297 15.6782 22.0255 15.6782 22.0255 16.1515C22.0255 16.4089 22.2027 16.5667 22.6954 16.5667C24.8905 16.5667 27.0441 15.3405 27.3015 13.3059C29.3969 12.5945 30.6619 10.477 30.6619 8.79674C30.6619 8.36215 30.6232 7.98569 30.446 7.63138C31.019 7.07776 31.6916 6.12831 31.6916 4.7249C31.6916 3.49865 31.1574 2.25301 30.208 1.34509C29.3775 0.534041 28.2122 -0.000197001 26.8475 -0.000197001C24.8711 -0.000197001 23.5867 1.06828 22.856 2.11461C20.6996 2.11461 17.9122 4.50623 17.9122 7.92757H17.616C17.4167 6.74283 16.1932 5.95116 15.1635 5.89026C14.3331 3.40177 12.4563 1.26481 9.36992 1.26481C9.01561 1.26481 8.58102 1.28419 8.20456 1.34509C7.29664 0.514664 6.28906 -0.000197001 4.88288 -0.000197001C2.19508 -0.000197001 0 2.15336 0 4.88268C0 6.58228 0.772295 7.75041 2.23384 8.77736C2.23384 8.77736 2.21446 8.99603 2.21446 9.09292C2.21446 11.2686 4.5867 14.6678 8.10768 14.6678C8.10768 15.2214 8.7997 15.9743 9.56922 16.1128V16.3896H9.27304C4.42891 16.3896 2.37224 18.723 2.37224 20.2842C0.930073 20.8766 0 22.4793 0 23.9602C0 26.9055 2.15633 29.0009 5.00191 29.0009C5.95136 29.0009 6.92018 28.6272 7.59282 28.1123C8.08554 28.2895 8.71942 28.3891 9.36992 28.3891C10.7346 28.3891 12.257 27.9158 13.3255 26.3518C13.4833 26.3712 13.6217 26.3712 13.7795 26.3712C15.5206 26.3712 17.0236 25.2252 17.8125 23.7222C18.0118 23.3485 18.0893 23.0523 18.0893 22.8336C18.0893 22.6149 17.9925 22.4378 17.7738 22.4378C17.497 22.4378 17.4582 22.6952 16.9627 23.1492C15.8555 24.1568 14.1559 24.5332 12.4148 24.5332C11.565 25.7789 10.5187 26.4321 9.31179 26.4321C8.42324 26.4321 7.73123 26.1941 7.01983 25.7207C6.44684 26.3518 5.73268 26.6093 5.04066 26.6093C3.47947 26.6093 2.37224 25.5214 2.37224 23.9408C2.37224 22.8336 3.08363 21.8454 4.07183 21.469C4.25176 19.5119 6.34719 18.1888 8.95748 18.1888C9.29242 18.1888 9.63012 18.2082 9.98443 18.2469C10.3803 17.6158 11.3297 16.9432 12.6722 16.766C12.949 16.7245 13.1677 16.7051 13.3255 16.6276C13.4833 16.5473 13.5635 16.3895 13.5635 16.2096C13.5635 16.0518 13.5027 15.9134 13.3449 15.8166C13.2065 15.7363 12.9684 15.6975 12.6916 15.6394C11.4487 15.4014 9.96506 14.6291 9.21214 12.7495C6.22816 12.7495 4.03308 10.3607 4.03308 7.67013V7.49297C3.04488 7.09714 2.37224 6.14769 2.37224 5.02108C2.37224 3.54016 3.54037 2.35267 5.02128 2.35267C5.9126 2.35267 6.68212 2.78725 7.17761 3.44052C7.59282 3.32149 8.06616 3.28274 8.52013 3.28274C10.7346 3.28274 13.1096 4.68615 13.5635 7.4127C16.4091 7.67013 17.0818 10.0839 17.2589 11.0915C17.3586 11.6063 17.4361 12.0409 17.7738 12.0409C18.1309 12.0409 18.2084 11.6451 18.3274 11.1108C18.5433 10.1033 18.9198 9.29222 19.6727 8.65834C19.6727 6.07019 21.6076 3.83634 24.3563 3.83634ZM58.5198 93.5108C53.1027 93.5108 49.5429 96.0796 49.5429 100.193C49.5429 101.654 50.0772 102.839 50.9464 103.769C51.9539 104.857 53.3989 105.61 55.4943 106.141L60.0201 107.29C61.2657 107.606 62.373 107.979 62.373 109.067C62.373 110.748 60.5931 111.323 58.6969 111.323C57.7669 111.323 56.7981 111.143 56.0092 110.748C55.4528 110.471 54.9794 110.078 54.6445 109.543C54.3483 109.089 54.2487 108.752 53.7919 108.494C53.5179 108.337 53.1802 108.317 52.7262 108.317H50.2765C49.7422 108.317 49.4848 108.475 49.3049 108.694C49.1277 108.91 49.0668 109.228 49.0668 109.543C49.0668 110.332 49.3464 111.323 49.9969 112.212C51.5 114.23 54.6445 115.849 58.6582 115.849C62.611 115.849 68.0862 114.208 68.0862 108.91C68.0862 107.545 67.6904 106.38 66.9596 105.43C66.0296 104.226 64.7064 103.396 62.4532 102.823L57.9662 101.674C56.106 101.2 55.2369 100.866 55.2369 99.7168C55.2369 98.6096 56.2251 97.721 58.5198 97.721C59.8623 97.721 61.0886 98.0172 61.8802 98.8476C62.5307 99.5396 62.4145 99.8967 62.9266 100.174C63.2449 100.331 63.5992 100.331 64.1528 100.331H66.3867C66.7437 100.331 66.9984 100.27 67.1977 100.055C67.3555 99.8746 67.4551 99.5978 67.4551 99.1438C67.4551 98.1169 66.7825 96.7909 65.595 95.7834C64.0144 94.4187 61.5232 93.5108 58.5198 93.5108ZM37.3053 93.5108C30.446 93.5108 26.5901 98.867 26.5901 104.522C26.5901 110.551 30.7228 115.849 37.344 115.849C40.6464 115.849 43.8878 114.603 45.7479 112.411C46.559 111.462 47.2095 110.136 47.2095 109.325C47.2095 109.048 47.1513 108.81 46.9935 108.633C46.8358 108.436 46.5977 108.317 46.1825 108.317H42.9992C42.3653 108.317 41.9335 108.555 41.6152 109.029C40.6851 110.393 39.3426 111.105 37.3662 111.105C34.3988 111.105 32.4805 108.851 32.3421 106.38H46.1022C46.7167 106.38 47.1513 106.241 47.4475 105.945C47.7852 105.629 47.943 105.173 47.943 104.323C47.943 101.735 47.1319 99.0469 45.4324 96.9903C43.6912 94.9142 41.0422 93.5108 37.3053 93.5108ZM92.2266 26.8086C84.8718 15.8359 78.4084 12.1378 76.587 10.3994C74.5912 8.48117 73.0688 6.30547 72.1 5.25914C69.9464 2.90628 67.1589 -0.000197001 62.5723 -0.000197001C58.1433 -0.000197001 55.2175 2.8869 54.268 5.37817C53.9912 6.08956 53.7725 6.95874 53.576 7.2743C53.1414 7.98569 51.1844 11.3268 50.3734 12.6527H54.0328L52.2529 16.0131C54.3289 15.5591 55.8099 15.2214 57.7863 15.2214C59.5468 15.2214 60.8118 15.6394 61.3654 16.7439C62.3923 18.8005 62.3923 25.0287 64.1334 29.715C65.7528 34.1218 69.7083 38.4317 74.1566 41.734C74.2148 41.7728 74.2757 41.7921 74.3532 41.7921C74.5718 41.7921 74.7102 41.6344 74.7102 41.4766C74.7102 41.3576 74.6715 41.2801 74.5718 41.1804C70.8543 37.4629 67.8288 33.3523 66.2095 28.8431C64.6068 24.4557 64.8642 18.2857 63.4608 15.5398C62.5307 13.7211 60.5543 13.245 58.7357 13.245C57.2714 13.245 55.9095 13.5412 55.2756 13.6796L56.8783 10.9724H54.1684C54.7414 9.96486 55.3365 9.03479 55.6327 8.48117C55.8901 8.00783 55.987 7.41269 56.3053 6.60165C57.3323 4.0135 59.6049 2.37204 62.5723 2.37204C66.287 2.37204 68.4627 4.76366 70.6163 7.15804C71.6072 8.2625 73.2266 10.5766 75.1061 12.2956C76.3905 13.4831 78.8402 14.809 82.6186 18.7009C84.7916 20.9541 87.3216 23.88 89.9928 27.7968C99.5398 41.7728 105.807 54.0907 109.306 63.6987L109.247 63.7374C99.2243 56.9363 90.5464 50.5116 83.5459 42.5838C78.5855 36.948 74.2757 30.4264 70.5194 22.1029C70.262 21.5492 70.0433 21.0344 69.808 20.5001C69.7083 20.2842 69.6087 20.2233 69.4509 20.2233C69.2544 20.2233 69.116 20.3617 69.116 20.561C69.116 20.7769 69.2129 21.2531 69.4315 22.2025C71.4273 30.8195 76.9635 38.5507 82.8761 44.9754C88.7665 51.3614 95.4293 56.856 100.905 60.8503L105.176 73.0686C105.273 73.3648 105.392 73.6803 105.392 73.9765C105.392 74.1952 105.333 74.3723 105.195 74.4914C105.076 74.6104 104.918 74.6685 104.561 74.6685H103.277C102.723 74.6685 102.507 74.591 102.308 74.4332C102.111 74.2755 101.973 74.0374 101.873 73.7606C101.497 72.6118 99.2437 66.1872 98.8091 64.8834C98.7288 64.6453 98.5904 64.5678 98.4326 64.5678C98.2361 64.5678 98.0977 64.7256 98.0977 64.9028C98.0977 65.0605 98.1558 65.2405 98.2555 65.7941C98.8285 68.7199 99.5011 72.0001 99.7779 73.2457C99.8969 73.8187 100.035 74.353 100.035 74.7488C100.035 75.1059 99.955 75.3024 99.6589 75.5986L98.333 76.9439C98.0174 77.2594 97.8402 77.3397 97.5828 77.3397C97.2672 77.3397 97.0098 77.121 96.8908 76.5674C95.3877 69.5504 93.1151 60.8503 92.5228 58.4393C92.3844 57.9051 92.2847 57.6089 91.9692 57.6089C91.6924 57.6089 91.5927 57.8054 91.5927 58.0435C91.5927 58.2206 91.6315 58.4393 91.6536 58.5971C92.0079 61.0884 93.4529 70.1621 95.014 78.4469C95.2909 79.8697 95.8251 80.6586 97.0486 80.6586C97.6022 80.6586 98.1364 80.4427 98.6319 79.9666C99.4402 79.1583 99.6782 78.9397 100.647 77.9902C101.339 77.3176 101.812 77.0435 103 77.0435H105.926C106.618 77.0435 106.994 76.8636 107.329 76.548C107.645 76.2519 107.844 75.8367 107.844 75.2415C107.844 74.6298 107.686 74.1371 107.468 73.5225C106.717 71.5074 104.304 64.6869 103.592 62.7686L103.653 62.7298C106.125 64.6066 109.721 66.9982 111.304 66.9982C111.797 66.9982 112.093 66.7823 112.093 66.01C112.093 62.3728 106.045 47.4086 92.2266 26.8086ZM19.2768 86.7096C19 87.0446 18.8423 87.421 18.8423 88.0743V106.022H18.7426C18.7426 106.022 8.91596 88.5089 8.44262 87.6978C8.10768 87.1248 7.73122 86.729 7.23574 86.4328C6.74302 86.156 6.22816 85.9789 5.23996 85.9789H1.99578C1.24563 85.9789 0.772294 86.2335 0.437358 86.6294C0.157783 86.9671 0 87.3408 0 87.994V113.438C0 114.089 0.157783 114.465 0.437358 114.803C0.772294 115.199 1.24563 115.456 1.99578 115.456H3.83655C4.58669 115.456 5.0628 115.199 5.39774 114.803C5.67455 114.465 5.83233 114.089 5.83233 113.438V95.0526H5.93198C5.93198 95.0526 16.1323 113.123 16.5475 113.795C17.1205 114.742 18.0893 115.456 19.4734 115.456H22.6179C23.3681 115.456 23.8442 115.199 24.1791 114.803C24.4559 114.465 24.6137 114.089 24.6137 113.438V90.4853H65.9133C66.3285 90.4853 66.6441 90.3663 66.8821 90.1697C67.1368 89.9317 67.2558 89.6161 67.2558 89.14V87.4017C67.2558 86.9255 67.1368 86.61 66.8821 86.3719C66.6441 86.1754 66.3285 86.0564 65.9133 86.0564H20.838C20.0851 86.0564 19.6118 86.3138 19.2768 86.7096Z" fill="currentColor"/>
</svg>
