<svg width="281" height="116" viewBox="0 0 281 116" fill="none" xmlns="http://www.w3.org/2000/svg">
<path fill-rule="evenodd" clip-rule="evenodd" d="M263.343 60.0209C269.448 60.0209 280.765 60.4974 280.765 75.184C280.765 89.8677 269.448 90.345 263.343 90.345C257.237 90.345 245.92 89.8672 245.92 75.184C245.92 60.4969 257.237 60.0209 263.343 60.0209ZM263.344 67.165C259.238 67.165 256.631 69.4268 256.631 75.184C256.631 80.9388 259.238 83.1996 263.344 83.2001C267.448 83.2001 270.056 80.9393 270.056 75.184C270.056 69.4273 267.448 67.165 263.344 67.165Z" fill="currentColor"/>
<path d="M175.271 60.0209C186.623 60.0209 191.3 63.3141 191.658 69.3084H179.948C179.948 68.157 179.34 67.441 178.414 67.0446C177.521 66.6091 176.379 66.4506 175.271 66.4506C172.273 66.4506 171.239 67.283 171.239 68.4748C171.239 69.2672 171.558 69.7851 172.558 69.9431L184.589 71.9269C189.659 72.7603 192.801 75.38 192.801 80.1814C192.801 87.0899 187.731 90.3446 176.414 90.3446C168.667 90.3446 160.206 89.1543 160.171 80.8188H172.309C172.343 81.7702 172.666 82.4053 173.38 82.8422C174.128 83.2396 175.235 83.4384 176.806 83.4384C179.947 83.4384 180.805 82.4852 180.805 81.1354C180.805 80.302 180.34 79.469 178.986 79.232L167.488 77.3257C162.563 76.4908 160.529 73.3157 160.529 69.3477C160.529 62.0037 166.991 60.0209 175.271 60.0209Z" fill="currentColor"/>
<path d="M226.715 60.0205C232.783 60.0205 242.137 60.8928 243.459 72.1268H232.106C231.821 70.1006 230.605 67.1642 226.715 67.1642C222.608 67.1642 220.002 69.4263 220.002 75.183C220.002 80.9382 222.538 83.1991 226.215 83.1991C229.393 83.199 231.285 81.7307 232.106 78.3177H243.459V78.3182C242.816 82.0492 241.672 85.0659 239.173 87.1291C236.711 89.1933 232.854 90.3446 226.715 90.3446C220.611 90.3446 209.294 89.8672 209.294 75.1836C209.294 60.497 220.611 60.0205 226.715 60.0205Z" fill="currentColor"/>
<path fill-rule="evenodd" clip-rule="evenodd" d="M82.7736 61.0134C89.9127 61.0134 92.5559 64.5848 92.5559 70.8964C92.5559 76.3338 89.9854 80.5393 82.8461 80.5393H72.0632V89.3522H61.9962V61.0134H82.7736ZM72.0626 73.6342H78.5607C81.0954 73.6342 82.06 72.7604 82.0601 70.6972C82.0601 68.5545 81.096 67.6795 78.5607 67.6795H72.0626V73.6342Z" fill="currentColor"/>
<path d="M122.97 67.9181H105.943V71.7285H121.758V78.6362H105.943V82.4462H122.97V89.3522H95.8757V61.0134H122.97V67.9181Z" fill="currentColor"/>
<path fill-rule="evenodd" clip-rule="evenodd" d="M147.96 61.0134C155.101 61.0134 157.744 64.5848 157.744 70.8964C157.744 76.3338 155.173 80.5393 148.032 80.5393H137.251V89.3522H127.184V61.0134H147.96ZM137.251 73.6342H143.749C146.283 73.6342 147.248 72.7604 147.248 70.6972C147.248 68.5545 146.283 67.6795 143.749 67.6795H137.251V73.6342Z" fill="currentColor"/>
<path d="M206.15 89.3522H196.084V61.0134H206.15V89.3522Z" fill="currentColor"/>
<path fill-rule="evenodd" clip-rule="evenodd" d="M23.6868 25.5044C27.0364 25.5044 29.5421 26.8874 29.5421 29.4963C29.5421 30.3015 29.3145 31.144 28.8938 31.9905C30.8675 32.7334 32.7322 33.6975 34.4642 34.8322C35.0567 33.6781 35.3791 32.5392 35.3791 31.4624C35.379 28.0772 32.5332 26.7543 31.7564 26.5085L31.8032 26.3603C34.301 26.7875 37.8984 28.8536 37.8984 32.6539C37.8984 33.9729 37.5507 35.3076 36.9172 36.6214C38.8622 38.1938 40.5921 39.9828 42.0636 41.8968C43.0441 40.1304 43.5882 38.3364 43.5882 36.5867C43.5881 34.9098 43.1327 33.8648 42.8752 33.4001L43.0074 33.2867C43.3473 33.5447 45.3882 35.2457 45.3882 38.4622C45.3882 40.4636 44.8153 42.4585 43.7874 44.3833C45.062 46.4338 46.0464 48.5746 46.6941 50.7078C47.9165 48.4708 48.6014 46.0758 48.5677 43.57L48.7511 43.5257C48.8223 43.7593 49.1924 44.8092 49.1924 46.4534C49.1924 48.8504 48.5208 51.1794 47.3273 53.3749C47.5012 54.4005 47.5908 55.4147 47.5908 56.4059C47.5757 58.8018 47.3865 60.2863 47.0491 61.364L46.7842 61.2942C46.8819 59.2506 46.6996 57.1685 46.2657 55.0988C44.7883 57.2423 42.8177 59.231 40.5078 60.9971C41.0965 62.8979 41.5741 64.8428 41.9175 66.8177C43.4623 65.5933 44.7809 64.3035 45.8294 63.0225L46.042 63.1664C43.0717 68.3213 35.6931 75.1031 24.7781 75.1031C19.9523 75.1031 16.7887 73.7751 15.8563 73.4318L15.9213 73.229C18.9924 73.8623 22.1439 74.0103 25.2608 73.6674C22.6705 72.7152 20.27 71.1472 18.1755 69.0642C17.6743 69.0864 17.1748 69.098 16.6777 69.098C8.89335 69.098 4.82822 65.3168 3.96995 63.7812L4.10835 63.6788C6.26232 65.5626 10.505 66.994 15.4562 66.994C15.7405 66.994 16.0279 66.9889 16.3179 66.9798C14.7722 65.0264 13.454 62.7508 12.4268 60.2074C3.77475 60.0189 -0.173072 55.6541 0.00580967 51.7688H0.168256C0.523267 53.8316 3.46473 57.5228 11.394 57.5228C11.4234 57.5228 11.4529 57.5222 11.4824 57.5221C10.7947 55.2478 10.3253 52.7993 10.1113 50.2085C4.36045 49.8693 1.24935 46.8239 1.24935 43.5572C1.24937 41.6886 2.18083 39.8647 2.41344 39.4624L2.58153 39.5268C2.52106 39.736 2.29302 40.4583 2.29302 41.5546C2.29306 44.9799 5.2592 47.3436 9.98171 47.3982C9.98023 47.2576 9.9792 47.1166 9.9792 46.9753C9.9792 44.6276 10.2539 42.5636 10.6603 40.7919C7.32584 40.5229 5.71004 38.8662 5.71003 36.935C5.71003 31.4762 15.4123 25.5044 23.6868 25.5044ZM29.4098 66.8575C26.3954 67.9002 23.2492 68.6127 20.1351 68.9226C22.1351 70.9137 24.4052 72.4737 26.8681 73.4494C29.169 73.0726 31.423 72.4499 33.5909 71.592C32.1506 70.2141 30.7499 68.6156 29.4098 66.8575ZM39.274 61.8969C36.751 63.653 33.8894 65.155 30.8628 66.3256C32.0745 68.1146 33.3168 69.7532 34.5721 71.1848C36.8747 70.1933 39.0572 68.9434 41.0777 67.4592C40.5724 65.5835 39.9656 63.7256 39.274 61.8969ZM24.0792 58.4816C20.8604 59.4627 17.5212 60.0666 14.2494 60.1899C15.3335 62.6332 16.6926 64.8882 18.2761 66.8535C21.3321 66.5604 24.6103 65.8146 27.8409 64.6875C26.5048 62.7424 25.243 60.6512 24.0792 58.4816ZM35.2681 53.2036C32.4741 55.086 29.2743 56.6883 25.8964 57.8836C27.0192 60.0514 28.2002 62.1459 29.4211 64.1047C32.5499 62.8855 35.5914 61.3148 38.2952 59.4587C37.3866 57.3189 36.3686 55.2273 35.2681 53.2036ZM42.7387 46.1003C41.2603 48.248 39.2313 50.2781 36.8256 52.0937C37.8868 54.1348 38.8423 56.2712 39.6545 58.4788C42.013 56.6949 44.0533 54.6823 45.5846 52.4913C44.8991 50.301 43.9395 48.1497 42.7387 46.1003ZM19.7734 48.9343C17.0646 49.7301 14.2713 50.1981 11.5618 50.2374C11.8391 52.7227 12.3925 55.159 13.1844 57.4722C16.3517 57.2958 19.5633 56.6632 22.6537 55.6857C21.5778 53.4626 20.6099 51.1896 19.7734 48.9343ZM29.6387 44.3253C27.2262 45.9542 24.4444 47.3482 21.5166 48.3731C22.4287 50.608 23.425 52.8574 24.4866 55.0608C27.8041 53.8469 30.9371 52.2469 33.6695 50.4059C32.3963 48.2801 31.0407 46.2452 29.6387 44.3253ZM36.1192 38.0382C34.9377 39.874 33.2252 41.6402 31.1568 43.2315C32.5981 45.0934 33.9825 47.1183 35.2589 49.2738C37.6223 47.4929 39.6085 45.5317 41.0478 43.5033C39.6258 41.5273 37.9712 39.6839 36.1192 38.0382ZM17.1711 40.0997C15.455 40.55 13.6498 40.8133 11.8167 40.8293C11.5415 42.5051 11.3574 44.4301 11.3574 46.5856C11.3574 46.8476 11.3604 47.1094 11.3668 47.371C13.8844 47.2549 16.3874 46.7855 18.7745 46.0564C18.115 44.0146 17.5745 42.0117 17.1711 40.0997ZM23.7714 37.2187C22.19 38.2356 20.3617 39.1106 18.3881 39.7447C18.9749 41.6075 19.6476 43.5458 20.3933 45.5164C23.0712 44.5469 25.5647 43.2622 27.7193 41.8038C26.4198 40.166 25.0954 38.6315 23.7714 37.2187ZM28.3456 32.9351C27.5369 34.1559 26.3514 35.3591 24.8916 36.4441C26.3103 37.7112 27.742 39.1646 29.1436 40.7768C31.059 39.3048 32.6278 37.7022 33.7128 36.0954C32.0433 34.8742 30.2476 33.8084 28.3456 32.9351ZM22.0999 26.2777C15.8073 26.2778 7.69095 31.2997 7.69095 35.5388C7.69095 37.239 8.94044 38.3471 11.2748 38.5827C12.3095 35.4374 13.6382 33.5811 13.9619 33.0913L14.1549 33.1678C13.8884 33.7398 12.9693 35.6182 12.2564 38.6301C13.7305 38.6301 15.2682 38.3831 16.7704 37.9538C16.491 36.2219 16.3398 34.5884 16.3324 33.0971L16.5786 33.0231C16.8896 34.4675 17.2847 36.0187 17.754 37.645C19.3223 37.109 20.8263 36.3845 22.1486 35.547C20.8773 34.2841 19.6169 33.1407 18.3902 32.1339L18.5721 32.0073C19.9948 32.7062 21.5161 33.6892 23.0767 34.9183C24.326 34.0146 25.3576 33.0134 26.0473 31.9941C24.034 31.2673 21.9195 30.7539 19.7245 30.494L19.7517 30.3084C22.0928 30.3084 24.3529 30.6303 26.5042 31.2163C26.8182 30.5843 26.9902 29.9534 26.9902 29.3423C26.9902 28.3655 26.2025 26.2777 22.0999 26.2777Z" fill="currentColor"/>
</svg>
