<svg width="163" height="116" viewBox="0 0 163 116" fill="none" xmlns="http://www.w3.org/2000/svg">
<path fill-rule="evenodd" clip-rule="evenodd" d="M64.7063 34.9014C63.9462 34.9014 63.6092 35.3556 63.3271 36.0056C45.5851 77.0168 44.0962 80.2589 44.0962 80.2589C54.1504 80.2589 54.1505 80.2589 54.1505 80.2589C56.2429 75.1138 56.2429 75.1138 56.2429 75.1138C71.3909 75.1138 71.3909 75.1138 71.3909 75.1138C73.4911 80.2589 73.4911 80.2589 73.4911 80.2589C85.3163 80.2589 85.3163 80.2589 85.3163 80.2589C85.3163 80.2589 84.3054 78.1523 66.0854 36.0056C65.8034 35.3556 65.4665 34.9014 64.7063 34.9014ZM59.4401 67.2671C63.8051 56.5308 63.8051 56.5308 63.8051 56.5308C68.1856 67.2671 68.1856 67.2671 68.1856 67.2671H59.4401ZM114.931 59.6555C118.387 57.588 121.004 53.9778 121.004 48.8015C121.004 44.7371 119.382 41.3854 116.561 39.1225C113.7 36.8201 110.393 35.5748 103.63 35.5748C89.1641 35.5748 89.1641 35.5748 89.1641 35.5748C89.1641 80.2589 89.1641 80.2589 89.1641 80.2589C99.8531 80.2589 99.8531 80.2589 99.8531 80.2589C99.8531 63.6256 99.8531 63.6256 99.8531 63.6256C103.168 63.6256 103.168 63.6256 103.168 63.6256C106.773 63.6256 108.591 64.996 110.103 68.6219C111.381 71.6916 112.282 75.3331 113.457 80.2589C125.377 80.2589 125.377 80.2589 125.377 80.2589C123.684 75.1921 122.838 72.7957 121.568 69.2249C119.828 64.3384 117.72 61.3313 114.931 59.6555ZM108.097 54.1737C106.804 55.1681 105.135 55.4814 102.134 55.4814C99.8531 55.4814 99.8531 55.4814 99.8531 55.4814C99.8531 55.4814 99.8297 43.5705 99.8531 43.5705C102.134 43.5705 102.134 43.5705 102.134 43.5705C105.268 43.5705 106.828 43.915 108.089 44.8703C109.531 45.9666 110.174 47.6112 110.174 49.5142C110.174 51.5894 109.453 53.1164 108.097 54.1737ZM20.1163 54.5104C1.95907 36.358 1.95907 36.358 1.95907 36.358C1.41053 35.8177 0.861992 35.434 0 35.434C0 80.2589 0 80.2589 0 80.2589C9.33339 80.2589 9.33339 80.2589 9.33339 80.2589C9.33339 58.8253 9.33339 58.8253 9.33339 58.8253C20.1163 69.6008 20.1163 69.6008 20.1163 69.6008C30.9072 58.8253 30.9072 58.8253 30.9072 58.8253C30.9072 80.2589 30.9072 80.2589 30.9072 80.2589C40.2406 80.2589 40.2406 80.2589 40.2406 80.2589C40.2406 35.434 40.2406 35.434 40.2406 35.434C39.3786 35.434 38.8301 35.8177 38.2815 36.358L20.1163 54.5104ZM158.659 57.9638C153.894 53.4376 145.25 52.6621 141.833 49.9998C140.494 48.9582 140.015 47.4232 140.454 45.9588C140.995 44.1421 142.805 42.9518 145.462 42.9518C149.121 42.9518 152.405 44.6197 154.678 47.3215C160.782 40.9392 160.782 40.9392 160.782 40.9392C157.185 37.1177 151.441 34.8154 145.391 34.8154C138.338 34.8154 133.017 38.2219 130.643 43.6565C128.801 47.8774 129.436 52.2785 131.701 55.4424C136.081 61.5662 145.329 61.7541 149.333 64.8943C150.759 66.0142 151.559 67.8231 150.704 69.7731C149.968 71.4802 148.111 72.6392 145.07 72.7175C140.854 72.8193 137.092 70.8459 134.326 67.3924C128.214 73.7825 128.214 73.7825 128.214 73.7825C132.257 78.6769 138.276 81.0342 145.548 81.0342C152.617 81.0342 158.823 78.2855 161.354 72.4277C163.572 67.3063 162.773 61.8638 158.659 57.9638Z" fill="currentColor"/>
</svg>
