<svg width="400" height="200" viewBox="0 0 400 200" fill="none" xmlns="http://www.w3.org/2000/svg">
<path d="M127.307 0C127.307 0.569799 126.737 4.84341 125.598 12.8203C124.458 20.7975 122.18 30.4848 118.763 41.8809C114.776 53.2767 108.225 64.9572 99.1113 76.9229C97.4719 78.9729 95.7201 80.9668 93.8594 82.9062H400V117.095H93.0283C95.2009 119.302 97.23 121.579 99.1113 123.932C108.225 135.328 114.775 147.009 118.763 158.975C122.18 170.37 124.458 180.057 125.598 188.034C126.732 195.979 127.302 199.968 127.307 200H97.4023C97.4023 198.86 96.8325 194.302 95.6934 186.325C93.9846 177.778 90.2819 168.092 84.5859 157.266C78.3203 146.439 68.637 137.038 55.5361 129.061C42.4353 121.083 23.9233 117.095 0 117.095V82.9062L2.22656 82.8945C25.0748 82.6531 42.8446 78.6683 55.5361 70.9404C68.6369 62.9632 78.3203 53.5615 84.5859 42.7354C90.2819 31.9093 93.9845 22.2227 95.6934 13.6758C96.8326 5.12878 97.4023 0.56981 97.4023 0H127.307Z" fill="currentColor"/>
</svg>
